<?xml version="1.0" encoding="utf-8" ?>
<svg baseProfile="full" height="800mm" version="1.1" viewBox="0 0 800 800" width="800mm" xmlns="http://www.w3.org/2000/svg" xmlns:ev="http://www.w3.org/2001/xml-events" xmlns:xlink="http://www.w3.org/1999/xlink"><defs /><rect fill="white" height="800" width="800" x="0" y="0" /><rect fill="black" height="26.4" width="26.4" x="43.59999999999995" y="730.0000000000001" /><rect fill="black" height="26.4" width="26.4" x="157.99999999999994" y="730.0000000000001" /><rect fill="black" height="26.4" width="26.4" x="272.4" y="730.0000000000001" /><rect fill="black" height="26.4" width="26.4" x="386.79999999999995" y="730.0000000000001" /><rect fill="black" height="26.4" width="26.4" x="501.2" y="730.0000000000001" /><rect fill="black" height="26.4" width="26.4" x="615.5999999999999" y="730.0000000000001" /><rect fill="black" height="26.4" width="26.4" x="729.9999999999999" y="730.0000000000001" /><rect fill="black" height="88.0" width="88.0" x="69.99999999999994" y="642.0000000000001" /><rect fill="white" height="8.8" width="8.8" x="87.59999999999994" y="659.6000000000001" /><rect fill="white" height="8.8" width="8.8" x="96.39999999999995" y="659.6000000000001" /><rect fill="white" height="8.8" width="8.8" x="113.99999999999994" y="659.6000000000001" /><rect fill="white" height="8.8" width="8.8" x="131.59999999999997" y="659.6000000000001" /><rect fill="white" height="8.8" width="8.8" x="96.39999999999995" y="668.4000000000001" /><rect fill="white" height="8.8" width="8.8" x="105.19999999999995" y="668.4000000000001" /><rect fill="white" height="8.8" width="8.8" x="113.99999999999994" y="668.4000000000001" /><rect fill="white" height="8.8" width="8.8" x="131.59999999999997" y="668.4000000000001" /><rect fill="white" height="8.8" width="8.8" x="96.39999999999995" y="677.2000000000002" /><rect fill="white" height="8.8" width="8.8" x="105.19999999999995" y="677.2000000000002" /><rect fill="white" height="8.8" width="8.8" x="87.59999999999994" y="686.0000000000001" /><rect fill="white" height="8.8" width="8.8" x="105.19999999999995" y="686.0000000000001" /><rect fill="white" height="8.8" width="8.8" x="96.39999999999995" y="694.8000000000001" /><rect fill="white" height="8.8" width="8.8" x="113.99999999999994" y="694.8000000000001" /><rect fill="white" height="8.8" width="8.8" x="122.79999999999995" y="694.8000000000001" /><rect fill="white" height="8.8" width="8.8" x="113.99999999999994" y="703.6000000000001" /><rect fill="black" height="88.0" width="88.0" x="184.39999999999998" y="642.0000000000001" /><rect fill="white" height="8.8" width="8.8" x="201.99999999999997" y="659.6000000000001" /><rect fill="white" height="8.8" width="8.8" x="210.79999999999998" y="659.6000000000001" /><rect fill="white" height="8.8" width="8.8" x="228.39999999999998" y="659.6000000000001" /><rect fill="white" height="8.8" width="8.8" x="237.2" y="659.6000000000001" /><rect fill="white" height="8.8" width="8.8" x="210.79999999999998" y="668.4000000000001" /><rect fill="white" height="8.8" width="8.8" x="228.39999999999998" y="668.4000000000001" /><rect fill="white" height="8.8" width="8.8" x="237.2" y="668.4000000000001" /><rect fill="white" height="8.8" width="8.8" x="246.0" y="668.4000000000001" /><rect fill="white" height="8.8" width="8.8" x="201.99999999999997" y="677.2000000000002" /><rect fill="white" height="8.8" width="8.8" x="210.79999999999998" y="677.2000000000002" /><rect fill="white" height="8.8" width="8.8" x="219.59999999999997" y="677.2000000000002" /><rect fill="white" height="8.8" width="8.8" x="228.39999999999998" y="677.2000000000002" /><rect fill="white" height="8.8" width="8.8" x="210.79999999999998" y="686.0000000000001" /><rect fill="white" height="8.8" width="8.8" x="219.59999999999997" y="686.0000000000001" /><rect fill="white" height="8.8" width="8.8" x="201.99999999999997" y="694.8000000000001" /><rect fill="white" height="8.8" width="8.8" x="219.59999999999997" y="694.8000000000001" /><rect fill="white" height="8.8" width="8.8" x="228.39999999999998" y="694.8000000000001" /><rect fill="white" height="8.8" width="8.8" x="246.0" y="694.8000000000001" /><rect fill="white" height="8.8" width="8.8" x="219.59999999999997" y="703.6000000000001" /><rect fill="white" height="8.8" width="8.8" x="246.0" y="703.6000000000001" /><rect fill="black" height="88.0" width="88.0" x="298.79999999999995" y="642.0000000000001" /><rect fill="white" height="8.8" width="8.8" x="316.4" y="659.6000000000001" /><rect fill="white" height="8.8" width="8.8" x="325.19999999999993" y="659.6000000000001" /><rect fill="white" height="8.8" width="8.8" x="342.79999999999995" y="659.6000000000001" /><rect fill="white" height="8.8" width="8.8" x="351.59999999999997" y="659.6000000000001" /><rect fill="white" height="8.8" width="8.8" x="360.4" y="659.6000000000001" /><rect fill="white" height="8.8" width="8.8" x="325.19999999999993" y="668.4000000000001" /><rect fill="white" height="8.8" width="8.8" x="351.59999999999997" y="668.4000000000001" /><rect fill="white" height="8.8" width="8.8" x="316.4" y="677.2000000000002" /><rect fill="white" height="8.8" width="8.8" x="333.99999999999994" y="686.0000000000001" /><rect fill="white" height="8.8" width="8.8" x="360.4" y="686.0000000000001" /><rect fill="white" height="8.8" width="8.8" x="342.79999999999995" y="694.8000000000001" /><rect fill="white" height="8.8" width="8.8" x="333.99999999999994" y="703.6000000000001" /><rect fill="white" height="8.8" width="8.8" x="342.79999999999995" y="703.6000000000001" /><rect fill="white" height="8.8" width="8.8" x="351.59999999999997" y="703.6000000000001" /><rect fill="black" height="88.0" width="88.0" x="413.2" y="642.0000000000001" /><rect fill="white" height="8.8" width="8.8" x="430.8" y="659.6000000000001" /><rect fill="white" height="8.8" width="8.8" x="439.59999999999997" y="659.6000000000001" /><rect fill="white" height="8.8" width="8.8" x="448.4" y="659.6000000000001" /><rect fill="white" height="8.8" width="8.8" x="474.8" y="659.6000000000001" /><rect fill="white" height="8.8" width="8.8" x="457.2" y="668.4000000000001" /><rect fill="white" height="8.8" width="8.8" x="466.0" y="668.4000000000001" /><rect fill="white" height="8.8" width="8.8" x="474.8" y="668.4000000000001" /><rect fill="white" height="8.8" width="8.8" x="430.8" y="677.2000000000002" /><rect fill="white" height="8.8" width="8.8" x="457.2" y="677.2000000000002" /><rect fill="white" height="8.8" width="8.8" x="466.0" y="677.2000000000002" /><rect fill="white" height="8.8" width="8.8" x="474.8" y="677.2000000000002" /><rect fill="white" height="8.8" width="8.8" x="430.8" y="686.0000000000001" /><rect fill="white" height="8.8" width="8.8" x="448.4" y="686.0000000000001" /><rect fill="white" height="8.8" width="8.8" x="474.8" y="686.0000000000001" /><rect fill="white" height="8.8" width="8.8" x="430.8" y="694.8000000000001" /><rect fill="white" height="8.8" width="8.8" x="439.59999999999997" y="694.8000000000001" /><rect fill="white" height="8.8" width="8.8" x="466.0" y="694.8000000000001" /><rect fill="white" height="8.8" width="8.8" x="439.59999999999997" y="703.6000000000001" /><rect fill="white" height="8.8" width="8.8" x="448.4" y="703.6000000000001" /><rect fill="black" height="88.0" width="88.0" x="527.5999999999999" y="642.0000000000001" /><rect fill="white" height="8.8" width="8.8" x="545.1999999999999" y="659.6000000000001" /><rect fill="white" height="8.8" width="8.8" x="553.9999999999999" y="659.6000000000001" /><rect fill="white" height="8.8" width="8.8" x="562.8" y="659.6000000000001" /><rect fill="white" height="8.8" width="8.8" x="580.3999999999999" y="659.6000000000001" /><rect fill="white" height="8.8" width="8.8" x="545.1999999999999" y="668.4000000000001" /><rect fill="white" height="8.8" width="8.8" x="553.9999999999999" y="668.4000000000001" /><rect fill="white" height="8.8" width="8.8" x="562.8" y="668.4000000000001" /><rect fill="white" height="8.8" width="8.8" x="571.5999999999999" y="668.4000000000001" /><rect fill="white" height="8.8" width="8.8" x="545.1999999999999" y="677.2000000000002" /><rect fill="white" height="8.8" width="8.8" x="562.8" y="677.2000000000002" /><rect fill="white" height="8.8" width="8.8" x="571.5999999999999" y="677.2000000000002" /><rect fill="white" height="8.8" width="8.8" x="580.3999999999999" y="677.2000000000002" /><rect fill="white" height="8.8" width="8.8" x="589.1999999999999" y="677.2000000000002" /><rect fill="white" height="8.8" width="8.8" x="562.8" y="686.0000000000001" /><rect fill="white" height="8.8" width="8.8" x="580.3999999999999" y="686.0000000000001" /><rect fill="white" height="8.8" width="8.8" x="545.1999999999999" y="694.8000000000001" /><rect fill="white" height="8.8" width="8.8" x="545.1999999999999" y="703.6000000000001" /><rect fill="white" height="8.8" width="8.8" x="580.3999999999999" y="703.6000000000001" /><rect fill="black" height="88.0" width="88.0" x="641.9999999999999" y="642.0000000000001" /><rect fill="white" height="8.8" width="8.8" x="659.5999999999999" y="659.6000000000001" /><rect fill="white" height="8.8" width="8.8" x="668.3999999999999" y="659.6000000000001" /><rect fill="white" height="8.8" width="8.8" x="677.1999999999999" y="659.6000000000001" /><rect fill="white" height="8.8" width="8.8" x="685.9999999999999" y="659.6000000000001" /><rect fill="white" height="8.8" width="8.8" x="659.5999999999999" y="668.4000000000001" /><rect fill="white" height="8.8" width="8.8" x="668.3999999999999" y="668.4000000000001" /><rect fill="white" height="8.8" width="8.8" x="703.5999999999999" y="668.4000000000001" /><rect fill="white" height="8.8" width="8.8" x="659.5999999999999" y="677.2000000000002" /><rect fill="white" height="8.8" width="8.8" x="668.3999999999999" y="677.2000000000002" /><rect fill="white" height="8.8" width="8.8" x="685.9999999999999" y="677.2000000000002" /><rect fill="white" height="8.8" width="8.8" x="694.7999999999998" y="677.2000000000002" /><rect fill="white" height="8.8" width="8.8" x="659.5999999999999" y="686.0000000000001" /><rect fill="white" height="8.8" width="8.8" x="677.1999999999999" y="686.0000000000001" /><rect fill="white" height="8.8" width="8.8" x="694.7999999999998" y="686.0000000000001" /><rect fill="white" height="8.8" width="8.8" x="703.5999999999999" y="686.0000000000001" /><rect fill="white" height="8.8" width="8.8" x="677.1999999999999" y="694.8000000000001" /><rect fill="white" height="8.8" width="8.8" x="685.9999999999999" y="694.8000000000001" /><rect fill="white" height="8.8" width="8.8" x="694.7999999999998" y="694.8000000000001" /><rect fill="white" height="8.8" width="8.8" x="659.5999999999999" y="703.6000000000001" /><rect fill="white" height="8.8" width="8.8" x="677.1999999999999" y="703.6000000000001" /><rect fill="white" height="8.8" width="8.8" x="685.9999999999999" y="703.6000000000001" /><rect fill="black" height="26.4" width="26.4" x="43.59999999999995" y="615.6000000000001" /><rect fill="black" height="26.4" width="26.4" x="157.99999999999994" y="615.6000000000001" /><rect fill="black" height="26.4" width="26.4" x="272.4" y="615.6000000000001" /><rect fill="black" height="26.4" width="26.4" x="386.79999999999995" y="615.6000000000001" /><rect fill="black" height="26.4" width="26.4" x="501.2" y="615.6000000000001" /><rect fill="black" height="26.4" width="26.4" x="615.5999999999999" y="615.6000000000001" /><rect fill="black" height="26.4" width="26.4" x="729.9999999999999" y="615.6000000000001" /><rect fill="black" height="88.0" width="88.0" x="69.99999999999994" y="527.6000000000001" /><rect fill="white" height="8.8" width="8.8" x="131.59999999999997" y="545.2000000000002" /><rect fill="white" height="8.8" width="8.8" x="96.39999999999995" y="554.0000000000001" /><rect fill="white" height="8.8" width="8.8" x="113.99999999999994" y="554.0000000000001" /><rect fill="white" height="8.8" width="8.8" x="122.79999999999995" y="554.0000000000001" /><rect fill="white" height="8.8" width="8.8" x="87.59999999999994" y="562.8000000000002" /><rect fill="white" height="8.8" width="8.8" x="105.19999999999995" y="562.8000000000002" /><rect fill="white" height="8.8" width="8.8" x="131.59999999999997" y="562.8000000000002" /><rect fill="white" height="8.8" width="8.8" x="96.39999999999995" y="571.6000000000001" /><rect fill="white" height="8.8" width="8.8" x="105.19999999999995" y="571.6000000000001" /><rect fill="white" height="8.8" width="8.8" x="113.99999999999994" y="571.6000000000001" /><rect fill="white" height="8.8" width="8.8" x="131.59999999999997" y="571.6000000000001" /><rect fill="white" height="8.8" width="8.8" x="122.79999999999995" y="580.4000000000001" /><rect fill="white" height="8.8" width="8.8" x="113.99999999999994" y="589.2000000000002" /><rect fill="white" height="8.8" width="8.8" x="131.59999999999997" y="589.2000000000002" /><rect fill="black" height="88.0" width="88.0" x="184.39999999999998" y="527.6000000000001" /><rect fill="white" height="8.8" width="8.8" x="228.39999999999998" y="545.2000000000002" /><rect fill="white" height="8.8" width="8.8" x="228.39999999999998" y="554.0000000000001" /><rect fill="white" height="8.8" width="8.8" x="237.2" y="554.0000000000001" /><rect fill="white" height="8.8" width="8.8" x="210.79999999999998" y="562.8000000000002" /><rect fill="white" height="8.8" width="8.8" x="228.39999999999998" y="562.8000000000002" /><rect fill="white" height="8.8" width="8.8" x="201.99999999999997" y="571.6000000000001" /><rect fill="white" height="8.8" width="8.8" x="219.59999999999997" y="571.6000000000001" /><rect fill="white" height="8.8" width="8.8" x="228.39999999999998" y="571.6000000000001" /><rect fill="white" height="8.8" width="8.8" x="237.2" y="571.6000000000001" /><rect fill="white" height="8.8" width="8.8" x="228.39999999999998" y="580.4000000000001" /><rect fill="white" height="8.8" width="8.8" x="237.2" y="580.4000000000001" /><rect fill="white" height="8.8" width="8.8" x="246.0" y="580.4000000000001" /><rect fill="white" height="8.8" width="8.8" x="210.79999999999998" y="589.2000000000002" /><rect fill="white" height="8.8" width="8.8" x="228.39999999999998" y="589.2000000000002" /><rect fill="black" height="88.0" width="88.0" x="298.79999999999995" y="527.6000000000001" /><rect fill="white" height="8.8" width="8.8" x="333.99999999999994" y="545.2000000000002" /><rect fill="white" height="8.8" width="8.8" x="316.4" y="554.0000000000001" /><rect fill="white" height="8.8" width="8.8" x="333.99999999999994" y="554.0000000000001" /><rect fill="white" height="8.8" width="8.8" x="351.59999999999997" y="554.0000000000001" /><rect fill="white" height="8.8" width="8.8" x="360.4" y="554.0000000000001" /><rect fill="white" height="8.8" width="8.8" x="342.79999999999995" y="562.8000000000002" /><rect fill="white" height="8.8" width="8.8" x="351.59999999999997" y="562.8000000000002" /><rect fill="white" height="8.8" width="8.8" x="360.4" y="562.8000000000002" /><rect fill="white" height="8.8" width="8.8" x="325.19999999999993" y="571.6000000000001" /><rect fill="white" height="8.8" width="8.8" x="333.99999999999994" y="571.6000000000001" /><rect fill="white" height="8.8" width="8.8" x="342.79999999999995" y="571.6000000000001" /><rect fill="white" height="8.8" width="8.8" x="351.59999999999997" y="571.6000000000001" /><rect fill="white" height="8.8" width="8.8" x="360.4" y="571.6000000000001" /><rect fill="white" height="8.8" width="8.8" x="316.4" y="580.4000000000001" /><rect fill="white" height="8.8" width="8.8" x="325.19999999999993" y="580.4000000000001" /><rect fill="white" height="8.8" width="8.8" x="333.99999999999994" y="580.4000000000001" /><rect fill="white" height="8.8" width="8.8" x="351.59999999999997" y="580.4000000000001" /><rect fill="white" height="8.8" width="8.8" x="316.4" y="589.2000000000002" /><rect fill="white" height="8.8" width="8.8" x="333.99999999999994" y="589.2000000000002" /><rect fill="white" height="8.8" width="8.8" x="342.79999999999995" y="589.2000000000002" /><rect fill="white" height="8.8" width="8.8" x="360.4" y="589.2000000000002" /><rect fill="black" height="88.0" width="88.0" x="413.2" y="527.6000000000001" /><rect fill="white" height="8.8" width="8.8" x="448.4" y="545.2000000000002" /><rect fill="white" height="8.8" width="8.8" x="474.8" y="545.2000000000002" /><rect fill="white" height="8.8" width="8.8" x="430.8" y="554.0000000000001" /><rect fill="white" height="8.8" width="8.8" x="457.2" y="554.0000000000001" /><rect fill="white" height="8.8" width="8.8" x="474.8" y="554.0000000000001" /><rect fill="white" height="8.8" width="8.8" x="430.8" y="562.8000000000002" /><rect fill="white" height="8.8" width="8.8" x="448.4" y="562.8000000000002" /><rect fill="white" height="8.8" width="8.8" x="466.0" y="562.8000000000002" /><rect fill="white" height="8.8" width="8.8" x="474.8" y="562.8000000000002" /><rect fill="white" height="8.8" width="8.8" x="439.59999999999997" y="571.6000000000001" /><rect fill="white" height="8.8" width="8.8" x="439.59999999999997" y="580.4000000000001" /><rect fill="white" height="8.8" width="8.8" x="474.8" y="580.4000000000001" /><rect fill="white" height="8.8" width="8.8" x="430.8" y="589.2000000000002" /><rect fill="white" height="8.8" width="8.8" x="439.59999999999997" y="589.2000000000002" /><rect fill="white" height="8.8" width="8.8" x="466.0" y="589.2000000000002" /><rect fill="black" height="88.0" width="88.0" x="527.5999999999999" y="527.6000000000001" /><rect fill="white" height="8.8" width="8.8" x="562.8" y="545.2000000000002" /><rect fill="white" height="8.8" width="8.8" x="571.5999999999999" y="545.2000000000002" /><rect fill="white" height="8.8" width="8.8" x="589.1999999999999" y="545.2000000000002" /><rect fill="white" height="8.8" width="8.8" x="562.8" y="554.0000000000001" /><rect fill="white" height="8.8" width="8.8" x="571.5999999999999" y="554.0000000000001" /><rect fill="white" height="8.8" width="8.8" x="580.3999999999999" y="554.0000000000001" /><rect fill="white" height="8.8" width="8.8" x="589.1999999999999" y="554.0000000000001" /><rect fill="white" height="8.8" width="8.8" x="545.1999999999999" y="562.8000000000002" /><rect fill="white" height="8.8" width="8.8" x="553.9999999999999" y="562.8000000000002" /><rect fill="white" height="8.8" width="8.8" x="562.8" y="562.8000000000002" /><rect fill="white" height="8.8" width="8.8" x="580.3999999999999" y="562.8000000000002" /><rect fill="white" height="8.8" width="8.8" x="553.9999999999999" y="571.6000000000001" /><rect fill="white" height="8.8" width="8.8" x="589.1999999999999" y="571.6000000000001" /><rect fill="white" height="8.8" width="8.8" x="545.1999999999999" y="580.4000000000001" /><rect fill="white" height="8.8" width="8.8" x="562.8" y="580.4000000000001" /><rect fill="white" height="8.8" width="8.8" x="571.5999999999999" y="580.4000000000001" /><rect fill="white" height="8.8" width="8.8" x="580.3999999999999" y="580.4000000000001" /><rect fill="white" height="8.8" width="8.8" x="571.5999999999999" y="589.2000000000002" /><rect fill="white" height="8.8" width="8.8" x="580.3999999999999" y="589.2000000000002" /><rect fill="black" height="88.0" width="88.0" x="641.9999999999999" y="527.6000000000001" /><rect fill="white" height="8.8" width="8.8" x="677.1999999999999" y="545.2000000000002" /><rect fill="white" height="8.8" width="8.8" x="685.9999999999999" y="545.2000000000002" /><rect fill="white" height="8.8" width="8.8" x="694.7999999999998" y="545.2000000000002" /><rect fill="white" height="8.8" width="8.8" x="703.5999999999999" y="545.2000000000002" /><rect fill="white" height="8.8" width="8.8" x="659.5999999999999" y="554.0000000000001" /><rect fill="white" height="8.8" width="8.8" x="668.3999999999999" y="554.0000000000001" /><rect fill="white" height="8.8" width="8.8" x="677.1999999999999" y="554.0000000000001" /><rect fill="white" height="8.8" width="8.8" x="685.9999999999999" y="554.0000000000001" /><rect fill="white" height="8.8" width="8.8" x="694.7999999999998" y="554.0000000000001" /><rect fill="white" height="8.8" width="8.8" x="703.5999999999999" y="554.0000000000001" /><rect fill="white" height="8.8" width="8.8" x="659.5999999999999" y="562.8000000000002" /><rect fill="white" height="8.8" width="8.8" x="685.9999999999999" y="562.8000000000002" /><rect fill="white" height="8.8" width="8.8" x="703.5999999999999" y="562.8000000000002" /><rect fill="white" height="8.8" width="8.8" x="659.5999999999999" y="571.6000000000001" /><rect fill="white" height="8.8" width="8.8" x="694.7999999999998" y="571.6000000000001" /><rect fill="white" height="8.8" width="8.8" x="659.5999999999999" y="580.4000000000001" /><rect fill="white" height="8.8" width="8.8" x="668.3999999999999" y="580.4000000000001" /><rect fill="white" height="8.8" width="8.8" x="694.7999999999998" y="580.4000000000001" /><rect fill="white" height="8.8" width="8.8" x="703.5999999999999" y="580.4000000000001" /><rect fill="white" height="8.8" width="8.8" x="668.3999999999999" y="589.2000000000002" /><rect fill="white" height="8.8" width="8.8" x="685.9999999999999" y="589.2000000000002" /><rect fill="white" height="8.8" width="8.8" x="703.5999999999999" y="589.2000000000002" /><rect fill="black" height="26.4" width="26.4" x="43.59999999999995" y="501.2" /><rect fill="black" height="26.4" width="26.4" x="157.99999999999994" y="501.2" /><rect fill="black" height="26.4" width="26.4" x="272.4" y="501.2" /><rect fill="black" height="26.4" width="26.4" x="386.79999999999995" y="501.2" /><rect fill="black" height="26.4" width="26.4" x="501.2" y="501.2" /><rect fill="black" height="26.4" width="26.4" x="615.5999999999999" y="501.2" /><rect fill="black" height="26.4" width="26.4" x="729.9999999999999" y="501.2" /><rect fill="black" height="88.0" width="88.0" x="69.99999999999994" y="413.20000000000005" /><rect fill="white" height="8.8" width="8.8" x="96.39999999999995" y="430.80000000000007" /><rect fill="white" height="8.8" width="8.8" x="87.59999999999994" y="439.6" /><rect fill="white" height="8.8" width="8.8" x="96.39999999999995" y="439.6" /><rect fill="white" height="8.8" width="8.8" x="105.19999999999995" y="439.6" /><rect fill="white" height="8.8" width="8.8" x="122.79999999999995" y="439.6" /><rect fill="white" height="8.8" width="8.8" x="105.19999999999995" y="448.40000000000003" /><rect fill="white" height="8.8" width="8.8" x="131.59999999999997" y="448.40000000000003" /><rect fill="white" height="8.8" width="8.8" x="96.39999999999995" y="457.20000000000005" /><rect fill="white" height="8.8" width="8.8" x="122.79999999999995" y="457.20000000000005" /><rect fill="white" height="8.8" width="8.8" x="131.59999999999997" y="457.20000000000005" /><rect fill="white" height="8.8" width="8.8" x="105.19999999999995" y="466.00000000000006" /><rect fill="white" height="8.8" width="8.8" x="122.79999999999995" y="466.00000000000006" /><rect fill="white" height="8.8" width="8.8" x="96.39999999999995" y="474.80000000000007" /><rect fill="white" height="8.8" width="8.8" x="105.19999999999995" y="474.80000000000007" /><rect fill="white" height="8.8" width="8.8" x="122.79999999999995" y="474.80000000000007" /><rect fill="black" height="88.0" width="88.0" x="184.39999999999998" y="413.20000000000005" /><rect fill="white" height="8.8" width="8.8" x="210.79999999999998" y="430.80000000000007" /><rect fill="white" height="8.8" width="8.8" x="246.0" y="430.80000000000007" /><rect fill="white" height="8.8" width="8.8" x="201.99999999999997" y="439.6" /><rect fill="white" height="8.8" width="8.8" x="210.79999999999998" y="439.6" /><rect fill="white" height="8.8" width="8.8" x="228.39999999999998" y="439.6" /><rect fill="white" height="8.8" width="8.8" x="201.99999999999997" y="448.40000000000003" /><rect fill="white" height="8.8" width="8.8" x="219.59999999999997" y="448.40000000000003" /><rect fill="white" height="8.8" width="8.8" x="228.39999999999998" y="448.40000000000003" /><rect fill="white" height="8.8" width="8.8" x="246.0" y="448.40000000000003" /><rect fill="white" height="8.8" width="8.8" x="237.2" y="457.20000000000005" /><rect fill="white" height="8.8" width="8.8" x="246.0" y="457.20000000000005" /><rect fill="white" height="8.8" width="8.8" x="201.99999999999997" y="466.00000000000006" /><rect fill="white" height="8.8" width="8.8" x="246.0" y="466.00000000000006" /><rect fill="white" height="8.8" width="8.8" x="210.79999999999998" y="474.80000000000007" /><rect fill="white" height="8.8" width="8.8" x="219.59999999999997" y="474.80000000000007" /><rect fill="white" height="8.8" width="8.8" x="228.39999999999998" y="474.80000000000007" /><rect fill="white" height="8.8" width="8.8" x="237.2" y="474.80000000000007" /><rect fill="white" height="8.8" width="8.8" x="246.0" y="474.80000000000007" /><rect fill="black" height="88.0" width="88.0" x="298.79999999999995" y="413.20000000000005" /><rect fill="white" height="8.8" width="8.8" x="325.19999999999993" y="430.80000000000007" /><rect fill="white" height="8.8" width="8.8" x="351.59999999999997" y="430.80000000000007" /><rect fill="white" height="8.8" width="8.8" x="360.4" y="430.80000000000007" /><rect fill="white" height="8.8" width="8.8" x="316.4" y="439.6" /><rect fill="white" height="8.8" width="8.8" x="333.99999999999994" y="439.6" /><rect fill="white" height="8.8" width="8.8" x="360.4" y="439.6" /><rect fill="white" height="8.8" width="8.8" x="316.4" y="448.40000000000003" /><rect fill="white" height="8.8" width="8.8" x="325.19999999999993" y="448.40000000000003" /><rect fill="white" height="8.8" width="8.8" x="342.79999999999995" y="448.40000000000003" /><rect fill="white" height="8.8" width="8.8" x="316.4" y="457.20000000000005" /><rect fill="white" height="8.8" width="8.8" x="342.79999999999995" y="457.20000000000005" /><rect fill="white" height="8.8" width="8.8" x="333.99999999999994" y="466.00000000000006" /><rect fill="white" height="8.8" width="8.8" x="342.79999999999995" y="466.00000000000006" /><rect fill="white" height="8.8" width="8.8" x="351.59999999999997" y="466.00000000000006" /><rect fill="white" height="8.8" width="8.8" x="360.4" y="466.00000000000006" /><rect fill="white" height="8.8" width="8.8" x="316.4" y="474.80000000000007" /><rect fill="white" height="8.8" width="8.8" x="333.99999999999994" y="474.80000000000007" /><rect fill="white" height="8.8" width="8.8" x="360.4" y="474.80000000000007" /><rect fill="black" height="88.0" width="88.0" x="413.2" y="413.20000000000005" /><rect fill="white" height="8.8" width="8.8" x="439.59999999999997" y="430.80000000000007" /><rect fill="white" height="8.8" width="8.8" x="457.2" y="430.80000000000007" /><rect fill="white" height="8.8" width="8.8" x="430.8" y="439.6" /><rect fill="white" height="8.8" width="8.8" x="457.2" y="439.6" /><rect fill="white" height="8.8" width="8.8" x="439.59999999999997" y="448.40000000000003" /><rect fill="white" height="8.8" width="8.8" x="448.4" y="448.40000000000003" /><rect fill="white" height="8.8" width="8.8" x="439.59999999999997" y="457.20000000000005" /><rect fill="white" height="8.8" width="8.8" x="457.2" y="457.20000000000005" /><rect fill="white" height="8.8" width="8.8" x="430.8" y="466.00000000000006" /><rect fill="white" height="8.8" width="8.8" x="457.2" y="466.00000000000006" /><rect fill="white" height="8.8" width="8.8" x="466.0" y="466.00000000000006" /><rect fill="white" height="8.8" width="8.8" x="430.8" y="474.80000000000007" /><rect fill="white" height="8.8" width="8.8" x="448.4" y="474.80000000000007" /><rect fill="white" height="8.8" width="8.8" x="457.2" y="474.80000000000007" /><rect fill="white" height="8.8" width="8.8" x="466.0" y="474.80000000000007" /><rect fill="black" height="88.0" width="88.0" x="527.5999999999999" y="413.20000000000005" /><rect fill="white" height="8.8" width="8.8" x="553.9999999999999" y="430.80000000000007" /><rect fill="white" height="8.8" width="8.8" x="571.5999999999999" y="430.80000000000007" /><rect fill="white" height="8.8" width="8.8" x="580.3999999999999" y="430.80000000000007" /><rect fill="white" height="8.8" width="8.8" x="553.9999999999999" y="439.6" /><rect fill="white" height="8.8" width="8.8" x="562.8" y="439.6" /><rect fill="white" height="8.8" width="8.8" x="589.1999999999999" y="439.6" /><rect fill="white" height="8.8" width="8.8" x="553.9999999999999" y="448.40000000000003" /><rect fill="white" height="8.8" width="8.8" x="562.8" y="448.40000000000003" /><rect fill="white" height="8.8" width="8.8" x="571.5999999999999" y="448.40000000000003" /><rect fill="white" height="8.8" width="8.8" x="580.3999999999999" y="448.40000000000003" /><rect fill="white" height="8.8" width="8.8" x="589.1999999999999" y="448.40000000000003" /><rect fill="white" height="8.8" width="8.8" x="545.1999999999999" y="457.20000000000005" /><rect fill="white" height="8.8" width="8.8" x="553.9999999999999" y="457.20000000000005" /><rect fill="white" height="8.8" width="8.8" x="571.5999999999999" y="457.20000000000005" /><rect fill="white" height="8.8" width="8.8" x="589.1999999999999" y="457.20000000000005" /><rect fill="white" height="8.8" width="8.8" x="553.9999999999999" y="466.00000000000006" /><rect fill="white" height="8.8" width="8.8" x="571.5999999999999" y="466.00000000000006" /><rect fill="white" height="8.8" width="8.8" x="545.1999999999999" y="474.80000000000007" /><rect fill="white" height="8.8" width="8.8" x="553.9999999999999" y="474.80000000000007" /><rect fill="white" height="8.8" width="8.8" x="562.8" y="474.80000000000007" /><rect fill="black" height="88.0" width="88.0" x="641.9999999999999" y="413.20000000000005" /><rect fill="white" height="8.8" width="8.8" x="668.3999999999999" y="430.80000000000007" /><rect fill="white" height="8.8" width="8.8" x="677.1999999999999" y="430.80000000000007" /><rect fill="white" height="8.8" width="8.8" x="694.7999999999998" y="430.80000000000007" /><rect fill="white" height="8.8" width="8.8" x="694.7999999999998" y="439.6" /><rect fill="white" height="8.8" width="8.8" x="703.5999999999999" y="439.6" /><rect fill="white" height="8.8" width="8.8" x="659.5999999999999" y="448.40000000000003" /><rect fill="white" height="8.8" width="8.8" x="677.1999999999999" y="448.40000000000003" /><rect fill="white" height="8.8" width="8.8" x="685.9999999999999" y="448.40000000000003" /><rect fill="white" height="8.8" width="8.8" x="694.7999999999998" y="448.40000000000003" /><rect fill="white" height="8.8" width="8.8" x="659.5999999999999" y="457.20000000000005" /><rect fill="white" height="8.8" width="8.8" x="668.3999999999999" y="457.20000000000005" /><rect fill="white" height="8.8" width="8.8" x="685.9999999999999" y="457.20000000000005" /><rect fill="white" height="8.8" width="8.8" x="694.7999999999998" y="457.20000000000005" /><rect fill="white" height="8.8" width="8.8" x="659.5999999999999" y="466.00000000000006" /><rect fill="white" height="8.8" width="8.8" x="668.3999999999999" y="466.00000000000006" /><rect fill="white" height="8.8" width="8.8" x="703.5999999999999" y="466.00000000000006" /><rect fill="white" height="8.8" width="8.8" x="677.1999999999999" y="474.80000000000007" /><rect fill="white" height="8.8" width="8.8" x="685.9999999999999" y="474.80000000000007" /><rect fill="black" height="26.4" width="26.4" x="43.59999999999995" y="386.8" /><rect fill="black" height="26.4" width="26.4" x="157.99999999999994" y="386.8" /><rect fill="black" height="26.4" width="26.4" x="272.4" y="386.8" /><rect fill="black" height="26.4" width="26.4" x="386.79999999999995" y="386.8" /><rect fill="black" height="26.4" width="26.4" x="501.2" y="386.8" /><rect fill="black" height="26.4" width="26.4" x="615.5999999999999" y="386.8" /><rect fill="black" height="26.4" width="26.4" x="729.9999999999999" y="386.8" /><rect fill="black" height="88.0" width="88.0" x="69.99999999999994" y="298.8" /><rect fill="white" height="8.8" width="8.8" x="96.39999999999995" y="316.40000000000003" /><rect fill="white" height="8.8" width="8.8" x="105.19999999999995" y="316.40000000000003" /><rect fill="white" height="8.8" width="8.8" x="122.79999999999995" y="316.40000000000003" /><rect fill="white" height="8.8" width="8.8" x="87.59999999999994" y="325.2" /><rect fill="white" height="8.8" width="8.8" x="96.39999999999995" y="325.2" /><rect fill="white" height="8.8" width="8.8" x="105.19999999999995" y="325.2" /><rect fill="white" height="8.8" width="8.8" x="113.99999999999994" y="325.2" /><rect fill="white" height="8.8" width="8.8" x="122.79999999999995" y="325.2" /><rect fill="white" height="8.8" width="8.8" x="96.39999999999995" y="334.0" /><rect fill="white" height="8.8" width="8.8" x="122.79999999999995" y="334.0" /><rect fill="white" height="8.8" width="8.8" x="87.59999999999994" y="342.8" /><rect fill="white" height="8.8" width="8.8" x="113.99999999999994" y="342.8" /><rect fill="white" height="8.8" width="8.8" x="122.79999999999995" y="342.8" /><rect fill="white" height="8.8" width="8.8" x="131.59999999999997" y="342.8" /><rect fill="white" height="8.8" width="8.8" x="105.19999999999995" y="351.6" /><rect fill="white" height="8.8" width="8.8" x="96.39999999999995" y="360.40000000000003" /><rect fill="white" height="8.8" width="8.8" x="131.59999999999997" y="360.40000000000003" /><rect fill="black" height="88.0" width="88.0" x="184.39999999999998" y="298.8" /><rect fill="white" height="8.8" width="8.8" x="210.79999999999998" y="316.40000000000003" /><rect fill="white" height="8.8" width="8.8" x="219.59999999999997" y="316.40000000000003" /><rect fill="white" height="8.8" width="8.8" x="228.39999999999998" y="316.40000000000003" /><rect fill="white" height="8.8" width="8.8" x="237.2" y="316.40000000000003" /><rect fill="white" height="8.8" width="8.8" x="246.0" y="316.40000000000003" /><rect fill="white" height="8.8" width="8.8" x="201.99999999999997" y="325.2" /><rect fill="white" height="8.8" width="8.8" x="237.2" y="325.2" /><rect fill="white" height="8.8" width="8.8" x="246.0" y="325.2" /><rect fill="white" height="8.8" width="8.8" x="228.39999999999998" y="334.0" /><rect fill="white" height="8.8" width="8.8" x="246.0" y="334.0" /><rect fill="white" height="8.8" width="8.8" x="210.79999999999998" y="342.8" /><rect fill="white" height="8.8" width="8.8" x="219.59999999999997" y="342.8" /><rect fill="white" height="8.8" width="8.8" x="201.99999999999997" y="351.6" /><rect fill="white" height="8.8" width="8.8" x="210.79999999999998" y="351.6" /><rect fill="white" height="8.8" width="8.8" x="219.59999999999997" y="351.6" /><rect fill="white" height="8.8" width="8.8" x="237.2" y="351.6" /><rect fill="white" height="8.8" width="8.8" x="246.0" y="351.6" /><rect fill="white" height="8.8" width="8.8" x="201.99999999999997" y="360.40000000000003" /><rect fill="white" height="8.8" width="8.8" x="219.59999999999997" y="360.40000000000003" /><rect fill="white" height="8.8" width="8.8" x="237.2" y="360.40000000000003" /><rect fill="black" height="88.0" width="88.0" x="298.79999999999995" y="298.8" /><rect fill="white" height="8.8" width="8.8" x="316.4" y="316.40000000000003" /><rect fill="white" height="8.8" width="8.8" x="325.19999999999993" y="325.2" /><rect fill="white" height="8.8" width="8.8" x="333.99999999999994" y="325.2" /><rect fill="white" height="8.8" width="8.8" x="342.79999999999995" y="325.2" /><rect fill="white" height="8.8" width="8.8" x="360.4" y="325.2" /><rect fill="white" height="8.8" width="8.8" x="316.4" y="334.0" /><rect fill="white" height="8.8" width="8.8" x="333.99999999999994" y="334.0" /><rect fill="white" height="8.8" width="8.8" x="360.4" y="334.0" /><rect fill="white" height="8.8" width="8.8" x="333.99999999999994" y="342.8" /><rect fill="white" height="8.8" width="8.8" x="360.4" y="342.8" /><rect fill="white" height="8.8" width="8.8" x="325.19999999999993" y="351.6" /><rect fill="white" height="8.8" width="8.8" x="351.59999999999997" y="351.6" /><rect fill="white" height="8.8" width="8.8" x="316.4" y="360.40000000000003" /><rect fill="white" height="8.8" width="8.8" x="333.99999999999994" y="360.40000000000003" /><rect fill="white" height="8.8" width="8.8" x="342.79999999999995" y="360.40000000000003" /><rect fill="white" height="8.8" width="8.8" x="351.59999999999997" y="360.40000000000003" /><rect fill="white" height="8.8" width="8.8" x="360.4" y="360.40000000000003" /><rect fill="black" height="88.0" width="88.0" x="413.2" y="298.8" /><rect fill="white" height="8.8" width="8.8" x="430.8" y="316.40000000000003" /><rect fill="white" height="8.8" width="8.8" x="474.8" y="316.40000000000003" /><rect fill="white" height="8.8" width="8.8" x="439.59999999999997" y="325.2" /><rect fill="white" height="8.8" width="8.8" x="448.4" y="325.2" /><rect fill="white" height="8.8" width="8.8" x="448.4" y="334.0" /><rect fill="white" height="8.8" width="8.8" x="457.2" y="334.0" /><rect fill="white" height="8.8" width="8.8" x="430.8" y="342.8" /><rect fill="white" height="8.8" width="8.8" x="439.59999999999997" y="342.8" /><rect fill="white" height="8.8" width="8.8" x="448.4" y="342.8" /><rect fill="white" height="8.8" width="8.8" x="474.8" y="342.8" /><rect fill="white" height="8.8" width="8.8" x="430.8" y="351.6" /><rect fill="white" height="8.8" width="8.8" x="448.4" y="351.6" /><rect fill="white" height="8.8" width="8.8" x="474.8" y="351.6" /><rect fill="white" height="8.8" width="8.8" x="430.8" y="360.40000000000003" /><rect fill="white" height="8.8" width="8.8" x="439.59999999999997" y="360.40000000000003" /><rect fill="white" height="8.8" width="8.8" x="457.2" y="360.40000000000003" /><rect fill="black" height="88.0" width="88.0" x="527.5999999999999" y="298.8" /><rect fill="white" height="8.8" width="8.8" x="545.1999999999999" y="316.40000000000003" /><rect fill="white" height="8.8" width="8.8" x="580.3999999999999" y="316.40000000000003" /><rect fill="white" height="8.8" width="8.8" x="589.1999999999999" y="316.40000000000003" /><rect fill="white" height="8.8" width="8.8" x="562.8" y="325.2" /><rect fill="white" height="8.8" width="8.8" x="571.5999999999999" y="325.2" /><rect fill="white" height="8.8" width="8.8" x="589.1999999999999" y="325.2" /><rect fill="white" height="8.8" width="8.8" x="553.9999999999999" y="334.0" /><rect fill="white" height="8.8" width="8.8" x="571.5999999999999" y="334.0" /><rect fill="white" height="8.8" width="8.8" x="553.9999999999999" y="342.8" /><rect fill="white" height="8.8" width="8.8" x="562.8" y="342.8" /><rect fill="white" height="8.8" width="8.8" x="580.3999999999999" y="342.8" /><rect fill="white" height="8.8" width="8.8" x="553.9999999999999" y="351.6" /><rect fill="white" height="8.8" width="8.8" x="571.5999999999999" y="351.6" /><rect fill="white" height="8.8" width="8.8" x="580.3999999999999" y="351.6" /><rect fill="white" height="8.8" width="8.8" x="589.1999999999999" y="351.6" /><rect fill="white" height="8.8" width="8.8" x="545.1999999999999" y="360.40000000000003" /><rect fill="white" height="8.8" width="8.8" x="553.9999999999999" y="360.40000000000003" /><rect fill="white" height="8.8" width="8.8" x="562.8" y="360.40000000000003" /><rect fill="white" height="8.8" width="8.8" x="571.5999999999999" y="360.40000000000003" /><rect fill="white" height="8.8" width="8.8" x="580.3999999999999" y="360.40000000000003" /><rect fill="black" height="88.0" width="88.0" x="641.9999999999999" y="298.8" /><rect fill="white" height="8.8" width="8.8" x="659.5999999999999" y="316.40000000000003" /><rect fill="white" height="8.8" width="8.8" x="685.9999999999999" y="316.40000000000003" /><rect fill="white" height="8.8" width="8.8" x="694.7999999999998" y="316.40000000000003" /><rect fill="white" height="8.8" width="8.8" x="703.5999999999999" y="316.40000000000003" /><rect fill="white" height="8.8" width="8.8" x="659.5999999999999" y="325.2" /><rect fill="white" height="8.8" width="8.8" x="668.3999999999999" y="325.2" /><rect fill="white" height="8.8" width="8.8" x="694.7999999999998" y="325.2" /><rect fill="white" height="8.8" width="8.8" x="685.9999999999999" y="334.0" /><rect fill="white" height="8.8" width="8.8" x="694.7999999999998" y="334.0" /><rect fill="white" height="8.8" width="8.8" x="703.5999999999999" y="334.0" /><rect fill="white" height="8.8" width="8.8" x="677.1999999999999" y="342.8" /><rect fill="white" height="8.8" width="8.8" x="685.9999999999999" y="342.8" /><rect fill="white" height="8.8" width="8.8" x="677.1999999999999" y="351.6" /><rect fill="white" height="8.8" width="8.8" x="694.7999999999998" y="351.6" /><rect fill="white" height="8.8" width="8.8" x="703.5999999999999" y="351.6" /><rect fill="white" height="8.8" width="8.8" x="668.3999999999999" y="360.40000000000003" /><rect fill="white" height="8.8" width="8.8" x="685.9999999999999" y="360.40000000000003" /><rect fill="white" height="8.8" width="8.8" x="694.7999999999998" y="360.40000000000003" /><rect fill="white" height="8.8" width="8.8" x="703.5999999999999" y="360.40000000000003" /><rect fill="black" height="26.4" width="26.4" x="43.59999999999995" y="272.40000000000003" /><rect fill="black" height="26.4" width="26.4" x="157.99999999999994" y="272.40000000000003" /><rect fill="black" height="26.4" width="26.4" x="272.4" y="272.40000000000003" /><rect fill="black" height="26.4" width="26.4" x="386.79999999999995" y="272.40000000000003" /><rect fill="black" height="26.4" width="26.4" x="501.2" y="272.40000000000003" /><rect fill="black" height="26.4" width="26.4" x="615.5999999999999" y="272.40000000000003" /><rect fill="black" height="26.4" width="26.4" x="729.9999999999999" y="272.40000000000003" /><rect fill="black" height="88.0" width="88.0" x="69.99999999999994" y="184.40000000000003" /><rect fill="white" height="8.8" width="8.8" x="87.59999999999994" y="202.00000000000003" /><rect fill="white" height="8.8" width="8.8" x="105.19999999999995" y="202.00000000000003" /><rect fill="white" height="8.8" width="8.8" x="87.59999999999994" y="210.80000000000004" /><rect fill="white" height="8.8" width="8.8" x="105.19999999999995" y="210.80000000000004" /><rect fill="white" height="8.8" width="8.8" x="113.99999999999994" y="210.80000000000004" /><rect fill="white" height="8.8" width="8.8" x="87.59999999999994" y="219.60000000000002" /><rect fill="white" height="8.8" width="8.8" x="105.19999999999995" y="219.60000000000002" /><rect fill="white" height="8.8" width="8.8" x="122.79999999999995" y="219.60000000000002" /><rect fill="white" height="8.8" width="8.8" x="87.59999999999994" y="228.40000000000003" /><rect fill="white" height="8.8" width="8.8" x="96.39999999999995" y="228.40000000000003" /><rect fill="white" height="8.8" width="8.8" x="105.19999999999995" y="228.40000000000003" /><rect fill="white" height="8.8" width="8.8" x="113.99999999999994" y="228.40000000000003" /><rect fill="white" height="8.8" width="8.8" x="87.59999999999994" y="237.20000000000005" /><rect fill="white" height="8.8" width="8.8" x="122.79999999999995" y="237.20000000000005" /><rect fill="white" height="8.8" width="8.8" x="96.39999999999995" y="246.00000000000006" /><rect fill="white" height="8.8" width="8.8" x="105.19999999999995" y="246.00000000000006" /><rect fill="white" height="8.8" width="8.8" x="113.99999999999994" y="246.00000000000006" /><rect fill="black" height="88.0" width="88.0" x="184.39999999999998" y="184.40000000000003" /><rect fill="white" height="8.8" width="8.8" x="201.99999999999997" y="202.00000000000003" /><rect fill="white" height="8.8" width="8.8" x="219.59999999999997" y="202.00000000000003" /><rect fill="white" height="8.8" width="8.8" x="237.2" y="202.00000000000003" /><rect fill="white" height="8.8" width="8.8" x="246.0" y="202.00000000000003" /><rect fill="white" height="8.8" width="8.8" x="210.79999999999998" y="210.80000000000004" /><rect fill="white" height="8.8" width="8.8" x="219.59999999999997" y="210.80000000000004" /><rect fill="white" height="8.8" width="8.8" x="228.39999999999998" y="210.80000000000004" /><rect fill="white" height="8.8" width="8.8" x="210.79999999999998" y="219.60000000000002" /><rect fill="white" height="8.8" width="8.8" x="228.39999999999998" y="219.60000000000002" /><rect fill="white" height="8.8" width="8.8" x="237.2" y="219.60000000000002" /><rect fill="white" height="8.8" width="8.8" x="219.59999999999997" y="228.40000000000003" /><rect fill="white" height="8.8" width="8.8" x="228.39999999999998" y="228.40000000000003" /><rect fill="white" height="8.8" width="8.8" x="246.0" y="228.40000000000003" /><rect fill="white" height="8.8" width="8.8" x="201.99999999999997" y="237.20000000000005" /><rect fill="white" height="8.8" width="8.8" x="228.39999999999998" y="237.20000000000005" /><rect fill="white" height="8.8" width="8.8" x="237.2" y="237.20000000000005" /><rect fill="white" height="8.8" width="8.8" x="246.0" y="237.20000000000005" /><rect fill="white" height="8.8" width="8.8" x="201.99999999999997" y="246.00000000000006" /><rect fill="white" height="8.8" width="8.8" x="219.59999999999997" y="246.00000000000006" /><rect fill="white" height="8.8" width="8.8" x="237.2" y="246.00000000000006" /><rect fill="white" height="8.8" width="8.8" x="246.0" y="246.00000000000006" /><rect fill="black" height="88.0" width="88.0" x="298.79999999999995" y="184.40000000000003" /><rect fill="white" height="8.8" width="8.8" x="316.4" y="202.00000000000003" /><rect fill="white" height="8.8" width="8.8" x="333.99999999999994" y="202.00000000000003" /><rect fill="white" height="8.8" width="8.8" x="342.79999999999995" y="202.00000000000003" /><rect fill="white" height="8.8" width="8.8" x="325.19999999999993" y="210.80000000000004" /><rect fill="white" height="8.8" width="8.8" x="342.79999999999995" y="210.80000000000004" /><rect fill="white" height="8.8" width="8.8" x="351.59999999999997" y="210.80000000000004" /><rect fill="white" height="8.8" width="8.8" x="316.4" y="219.60000000000002" /><rect fill="white" height="8.8" width="8.8" x="325.19999999999993" y="219.60000000000002" /><rect fill="white" height="8.8" width="8.8" x="333.99999999999994" y="219.60000000000002" /><rect fill="white" height="8.8" width="8.8" x="360.4" y="219.60000000000002" /><rect fill="white" height="8.8" width="8.8" x="316.4" y="228.40000000000003" /><rect fill="white" height="8.8" width="8.8" x="325.19999999999993" y="228.40000000000003" /><rect fill="white" height="8.8" width="8.8" x="333.99999999999994" y="228.40000000000003" /><rect fill="white" height="8.8" width="8.8" x="342.79999999999995" y="228.40000000000003" /><rect fill="white" height="8.8" width="8.8" x="360.4" y="228.40000000000003" /><rect fill="white" height="8.8" width="8.8" x="316.4" y="237.20000000000005" /><rect fill="white" height="8.8" width="8.8" x="325.19999999999993" y="237.20000000000005" /><rect fill="white" height="8.8" width="8.8" x="333.99999999999994" y="237.20000000000005" /><rect fill="white" height="8.8" width="8.8" x="342.79999999999995" y="237.20000000000005" /><rect fill="white" height="8.8" width="8.8" x="351.59999999999997" y="237.20000000000005" /><rect fill="white" height="8.8" width="8.8" x="316.4" y="246.00000000000006" /><rect fill="white" height="8.8" width="8.8" x="325.19999999999993" y="246.00000000000006" /><rect fill="black" height="88.0" width="88.0" x="413.2" y="184.40000000000003" /><rect fill="white" height="8.8" width="8.8" x="430.8" y="202.00000000000003" /><rect fill="white" height="8.8" width="8.8" x="448.4" y="202.00000000000003" /><rect fill="white" height="8.8" width="8.8" x="457.2" y="202.00000000000003" /><rect fill="white" height="8.8" width="8.8" x="466.0" y="202.00000000000003" /><rect fill="white" height="8.8" width="8.8" x="448.4" y="210.80000000000004" /><rect fill="white" height="8.8" width="8.8" x="457.2" y="210.80000000000004" /><rect fill="white" height="8.8" width="8.8" x="474.8" y="219.60000000000002" /><rect fill="white" height="8.8" width="8.8" x="439.59999999999997" y="228.40000000000003" /><rect fill="white" height="8.8" width="8.8" x="448.4" y="228.40000000000003" /><rect fill="white" height="8.8" width="8.8" x="457.2" y="228.40000000000003" /><rect fill="white" height="8.8" width="8.8" x="466.0" y="228.40000000000003" /><rect fill="white" height="8.8" width="8.8" x="430.8" y="237.20000000000005" /><rect fill="white" height="8.8" width="8.8" x="448.4" y="237.20000000000005" /><rect fill="white" height="8.8" width="8.8" x="457.2" y="237.20000000000005" /><rect fill="white" height="8.8" width="8.8" x="430.8" y="246.00000000000006" /><rect fill="white" height="8.8" width="8.8" x="439.59999999999997" y="246.00000000000006" /><rect fill="white" height="8.8" width="8.8" x="448.4" y="246.00000000000006" /><rect fill="white" height="8.8" width="8.8" x="466.0" y="246.00000000000006" /><rect fill="black" height="88.0" width="88.0" x="527.5999999999999" y="184.40000000000003" /><rect fill="white" height="8.8" width="8.8" x="545.1999999999999" y="202.00000000000003" /><rect fill="white" height="8.8" width="8.8" x="553.9999999999999" y="202.00000000000003" /><rect fill="white" height="8.8" width="8.8" x="571.5999999999999" y="202.00000000000003" /><rect fill="white" height="8.8" width="8.8" x="545.1999999999999" y="210.80000000000004" /><rect fill="white" height="8.8" width="8.8" x="571.5999999999999" y="210.80000000000004" /><rect fill="white" height="8.8" width="8.8" x="589.1999999999999" y="210.80000000000004" /><rect fill="white" height="8.8" width="8.8" x="545.1999999999999" y="219.60000000000002" /><rect fill="white" height="8.8" width="8.8" x="553.9999999999999" y="219.60000000000002" /><rect fill="white" height="8.8" width="8.8" x="562.8" y="219.60000000000002" /><rect fill="white" height="8.8" width="8.8" x="580.3999999999999" y="219.60000000000002" /><rect fill="white" height="8.8" width="8.8" x="589.1999999999999" y="219.60000000000002" /><rect fill="white" height="8.8" width="8.8" x="545.1999999999999" y="228.40000000000003" /><rect fill="white" height="8.8" width="8.8" x="553.9999999999999" y="228.40000000000003" /><rect fill="white" height="8.8" width="8.8" x="589.1999999999999" y="228.40000000000003" /><rect fill="white" height="8.8" width="8.8" x="562.8" y="237.20000000000005" /><rect fill="white" height="8.8" width="8.8" x="571.5999999999999" y="237.20000000000005" /><rect fill="white" height="8.8" width="8.8" x="580.3999999999999" y="237.20000000000005" /><rect fill="white" height="8.8" width="8.8" x="553.9999999999999" y="246.00000000000006" /><rect fill="white" height="8.8" width="8.8" x="562.8" y="246.00000000000006" /><rect fill="white" height="8.8" width="8.8" x="571.5999999999999" y="246.00000000000006" /><rect fill="white" height="8.8" width="8.8" x="589.1999999999999" y="246.00000000000006" /><rect fill="black" height="88.0" width="88.0" x="641.9999999999999" y="184.40000000000003" /><rect fill="white" height="8.8" width="8.8" x="659.5999999999999" y="202.00000000000003" /><rect fill="white" height="8.8" width="8.8" x="668.3999999999999" y="202.00000000000003" /><rect fill="white" height="8.8" width="8.8" x="685.9999999999999" y="202.00000000000003" /><rect fill="white" height="8.8" width="8.8" x="703.5999999999999" y="202.00000000000003" /><rect fill="white" height="8.8" width="8.8" x="659.5999999999999" y="210.80000000000004" /><rect fill="white" height="8.8" width="8.8" x="668.3999999999999" y="219.60000000000002" /><rect fill="white" height="8.8" width="8.8" x="677.1999999999999" y="219.60000000000002" /><rect fill="white" height="8.8" width="8.8" x="685.9999999999999" y="219.60000000000002" /><rect fill="white" height="8.8" width="8.8" x="694.7999999999998" y="219.60000000000002" /><rect fill="white" height="8.8" width="8.8" x="703.5999999999999" y="219.60000000000002" /><rect fill="white" height="8.8" width="8.8" x="659.5999999999999" y="228.40000000000003" /><rect fill="white" height="8.8" width="8.8" x="703.5999999999999" y="228.40000000000003" /><rect fill="white" height="8.8" width="8.8" x="659.5999999999999" y="237.20000000000005" /><rect fill="white" height="8.8" width="8.8" x="685.9999999999999" y="237.20000000000005" /><rect fill="white" height="8.8" width="8.8" x="703.5999999999999" y="237.20000000000005" /><rect fill="white" height="8.8" width="8.8" x="659.5999999999999" y="246.00000000000006" /><rect fill="white" height="8.8" width="8.8" x="694.7999999999998" y="246.00000000000006" /><rect fill="black" height="26.4" width="26.4" x="43.59999999999995" y="158.00000000000006" /><rect fill="black" height="26.4" width="26.4" x="157.99999999999994" y="158.00000000000006" /><rect fill="black" height="26.4" width="26.4" x="272.4" y="158.00000000000006" /><rect fill="black" height="26.4" width="26.4" x="386.79999999999995" y="158.00000000000006" /><rect fill="black" height="26.4" width="26.4" x="501.2" y="158.00000000000006" /><rect fill="black" height="26.4" width="26.4" x="615.5999999999999" y="158.00000000000006" /><rect fill="black" height="26.4" width="26.4" x="729.9999999999999" y="158.00000000000006" /><rect fill="black" height="88.0" width="88.0" x="69.99999999999994" y="70.00000000000007" /><rect fill="white" height="8.8" width="8.8" x="87.59999999999994" y="87.60000000000008" /><rect fill="white" height="8.8" width="8.8" x="96.39999999999995" y="87.60000000000008" /><rect fill="white" height="8.8" width="8.8" x="105.19999999999995" y="87.60000000000008" /><rect fill="white" height="8.8" width="8.8" x="131.59999999999997" y="87.60000000000008" /><rect fill="white" height="8.8" width="8.8" x="105.19999999999995" y="96.40000000000008" /><rect fill="white" height="8.8" width="8.8" x="122.79999999999995" y="96.40000000000008" /><rect fill="white" height="8.8" width="8.8" x="87.59999999999994" y="105.20000000000007" /><rect fill="white" height="8.8" width="8.8" x="105.19999999999995" y="105.20000000000007" /><rect fill="white" height="8.8" width="8.8" x="113.99999999999994" y="105.20000000000007" /><rect fill="white" height="8.8" width="8.8" x="122.79999999999995" y="105.20000000000007" /><rect fill="white" height="8.8" width="8.8" x="87.59999999999994" y="114.00000000000007" /><rect fill="white" height="8.8" width="8.8" x="122.79999999999995" y="114.00000000000007" /><rect fill="white" height="8.8" width="8.8" x="131.59999999999997" y="114.00000000000007" /><rect fill="white" height="8.8" width="8.8" x="131.59999999999997" y="122.80000000000007" /><rect fill="white" height="8.8" width="8.8" x="87.59999999999994" y="131.60000000000008" /><rect fill="white" height="8.8" width="8.8" x="96.39999999999995" y="131.60000000000008" /><rect fill="white" height="8.8" width="8.8" x="113.99999999999994" y="131.60000000000008" /><rect fill="white" height="8.8" width="8.8" x="122.79999999999995" y="131.60000000000008" /><rect fill="black" height="88.0" width="88.0" x="184.39999999999998" y="70.00000000000007" /><rect fill="white" height="8.8" width="8.8" x="219.59999999999997" y="87.60000000000008" /><rect fill="white" height="8.8" width="8.8" x="237.2" y="87.60000000000008" /><rect fill="white" height="8.8" width="8.8" x="246.0" y="87.60000000000008" /><rect fill="white" height="8.8" width="8.8" x="210.79999999999998" y="96.40000000000008" /><rect fill="white" height="8.8" width="8.8" x="219.59999999999997" y="96.40000000000008" /><rect fill="white" height="8.8" width="8.8" x="228.39999999999998" y="96.40000000000008" /><rect fill="white" height="8.8" width="8.8" x="246.0" y="96.40000000000008" /><rect fill="white" height="8.8" width="8.8" x="201.99999999999997" y="105.20000000000007" /><rect fill="white" height="8.8" width="8.8" x="210.79999999999998" y="105.20000000000007" /><rect fill="white" height="8.8" width="8.8" x="219.59999999999997" y="105.20000000000007" /><rect fill="white" height="8.8" width="8.8" x="246.0" y="105.20000000000007" /><rect fill="white" height="8.8" width="8.8" x="201.99999999999997" y="114.00000000000007" /><rect fill="white" height="8.8" width="8.8" x="219.59999999999997" y="114.00000000000007" /><rect fill="white" height="8.8" width="8.8" x="237.2" y="114.00000000000007" /><rect fill="white" height="8.8" width="8.8" x="219.59999999999997" y="122.80000000000007" /><rect fill="white" height="8.8" width="8.8" x="228.39999999999998" y="122.80000000000007" /><rect fill="white" height="8.8" width="8.8" x="237.2" y="122.80000000000007" /><rect fill="white" height="8.8" width="8.8" x="246.0" y="122.80000000000007" /><rect fill="white" height="8.8" width="8.8" x="210.79999999999998" y="131.60000000000008" /><rect fill="white" height="8.8" width="8.8" x="219.59999999999997" y="131.60000000000008" /><rect fill="white" height="8.8" width="8.8" x="237.2" y="131.60000000000008" /><rect fill="black" height="88.0" width="88.0" x="298.79999999999995" y="70.00000000000007" /><rect fill="white" height="8.8" width="8.8" x="325.19999999999993" y="87.60000000000008" /><rect fill="white" height="8.8" width="8.8" x="316.4" y="96.40000000000008" /><rect fill="white" height="8.8" width="8.8" x="325.19999999999993" y="96.40000000000008" /><rect fill="white" height="8.8" width="8.8" x="333.99999999999994" y="96.40000000000008" /><rect fill="white" height="8.8" width="8.8" x="342.79999999999995" y="96.40000000000008" /><rect fill="white" height="8.8" width="8.8" x="360.4" y="96.40000000000008" /><rect fill="white" height="8.8" width="8.8" x="325.19999999999993" y="105.20000000000007" /><rect fill="white" height="8.8" width="8.8" x="333.99999999999994" y="114.00000000000007" /><rect fill="white" height="8.8" width="8.8" x="342.79999999999995" y="114.00000000000007" /><rect fill="white" height="8.8" width="8.8" x="325.19999999999993" y="122.80000000000007" /><rect fill="white" height="8.8" width="8.8" x="333.99999999999994" y="122.80000000000007" /><rect fill="white" height="8.8" width="8.8" x="360.4" y="122.80000000000007" /><rect fill="white" height="8.8" width="8.8" x="316.4" y="131.60000000000008" /><rect fill="white" height="8.8" width="8.8" x="325.19999999999993" y="131.60000000000008" /><rect fill="white" height="8.8" width="8.8" x="333.99999999999994" y="131.60000000000008" /><rect fill="black" height="88.0" width="88.0" x="413.2" y="70.00000000000007" /><rect fill="white" height="8.8" width="8.8" x="439.59999999999997" y="87.60000000000008" /><rect fill="white" height="8.8" width="8.8" x="457.2" y="87.60000000000008" /><rect fill="white" height="8.8" width="8.8" x="474.8" y="87.60000000000008" /><rect fill="white" height="8.8" width="8.8" x="430.8" y="96.40000000000008" /><rect fill="white" height="8.8" width="8.8" x="466.0" y="96.40000000000008" /><rect fill="white" height="8.8" width="8.8" x="466.0" y="105.20000000000007" /><rect fill="white" height="8.8" width="8.8" x="430.8" y="114.00000000000007" /><rect fill="white" height="8.8" width="8.8" x="439.59999999999997" y="114.00000000000007" /><rect fill="white" height="8.8" width="8.8" x="448.4" y="114.00000000000007" /><rect fill="white" height="8.8" width="8.8" x="457.2" y="114.00000000000007" /><rect fill="white" height="8.8" width="8.8" x="466.0" y="114.00000000000007" /><rect fill="white" height="8.8" width="8.8" x="448.4" y="122.80000000000007" /><rect fill="white" height="8.8" width="8.8" x="457.2" y="122.80000000000007" /><rect fill="white" height="8.8" width="8.8" x="474.8" y="122.80000000000007" /><rect fill="white" height="8.8" width="8.8" x="439.59999999999997" y="131.60000000000008" /><rect fill="white" height="8.8" width="8.8" x="474.8" y="131.60000000000008" /><rect fill="black" height="88.0" width="88.0" x="527.5999999999999" y="70.00000000000007" /><rect fill="white" height="8.8" width="8.8" x="553.9999999999999" y="87.60000000000008" /><rect fill="white" height="8.8" width="8.8" x="562.8" y="87.60000000000008" /><rect fill="white" height="8.8" width="8.8" x="589.1999999999999" y="87.60000000000008" /><rect fill="white" height="8.8" width="8.8" x="562.8" y="96.40000000000008" /><rect fill="white" height="8.8" width="8.8" x="571.5999999999999" y="96.40000000000008" /><rect fill="white" height="8.8" width="8.8" x="553.9999999999999" y="105.20000000000007" /><rect fill="white" height="8.8" width="8.8" x="589.1999999999999" y="105.20000000000007" /><rect fill="white" height="8.8" width="8.8" x="545.1999999999999" y="114.00000000000007" /><rect fill="white" height="8.8" width="8.8" x="553.9999999999999" y="114.00000000000007" /><rect fill="white" height="8.8" width="8.8" x="562.8" y="114.00000000000007" /><rect fill="white" height="8.8" width="8.8" x="571.5999999999999" y="114.00000000000007" /><rect fill="white" height="8.8" width="8.8" x="580.3999999999999" y="114.00000000000007" /><rect fill="white" height="8.8" width="8.8" x="589.1999999999999" y="114.00000000000007" /><rect fill="white" height="8.8" width="8.8" x="545.1999999999999" y="122.80000000000007" /><rect fill="white" height="8.8" width="8.8" x="562.8" y="122.80000000000007" /><rect fill="white" height="8.8" width="8.8" x="589.1999999999999" y="122.80000000000007" /><rect fill="white" height="8.8" width="8.8" x="545.1999999999999" y="131.60000000000008" /><rect fill="white" height="8.8" width="8.8" x="571.5999999999999" y="131.60000000000008" /><rect fill="white" height="8.8" width="8.8" x="589.1999999999999" y="131.60000000000008" /><rect fill="black" height="88.0" width="88.0" x="641.9999999999999" y="70.00000000000007" /><rect fill="white" height="8.8" width="8.8" x="668.3999999999999" y="87.60000000000008" /><rect fill="white" height="8.8" width="8.8" x="677.1999999999999" y="87.60000000000008" /><rect fill="white" height="8.8" width="8.8" x="694.7999999999998" y="87.60000000000008" /><rect fill="white" height="8.8" width="8.8" x="685.9999999999999" y="96.40000000000008" /><rect fill="white" height="8.8" width="8.8" x="694.7999999999998" y="96.40000000000008" /><rect fill="white" height="8.8" width="8.8" x="659.5999999999999" y="105.20000000000007" /><rect fill="white" height="8.8" width="8.8" x="668.3999999999999" y="105.20000000000007" /><rect fill="white" height="8.8" width="8.8" x="685.9999999999999" y="105.20000000000007" /><rect fill="white" height="8.8" width="8.8" x="703.5999999999999" y="105.20000000000007" /><rect fill="white" height="8.8" width="8.8" x="659.5999999999999" y="114.00000000000007" /><rect fill="white" height="8.8" width="8.8" x="668.3999999999999" y="114.00000000000007" /><rect fill="white" height="8.8" width="8.8" x="659.5999999999999" y="131.60000000000008" /><rect fill="white" height="8.8" width="8.8" x="677.1999999999999" y="131.60000000000008" /><rect fill="white" height="8.8" width="8.8" x="694.7999999999998" y="131.60000000000008" /><rect fill="black" height="26.4" width="26.4" x="43.59999999999995" y="43.600000000000094" /><rect fill="black" height="26.4" width="26.4" x="157.99999999999994" y="43.600000000000094" /><rect fill="black" height="26.4" width="26.4" x="272.4" y="43.600000000000094" /><rect fill="black" height="26.4" width="26.4" x="386.79999999999995" y="43.600000000000094" /><rect fill="black" height="26.4" width="26.4" x="501.2" y="43.600000000000094" /><rect fill="black" height="26.4" width="26.4" x="615.5999999999999" y="43.600000000000094" /><rect fill="black" height="26.4" width="26.4" x="729.9999999999999" y="43.600000000000094" /></svg>