<?xml version="1.0" encoding="utf-8" ?>
<svg baseProfile="full" height="800mm" version="1.1" viewBox="0 0 800 800" width="800mm" xmlns="http://www.w3.org/2000/svg" xmlns:ev="http://www.w3.org/2001/xml-events" xmlns:xlink="http://www.w3.org/1999/xlink"><defs /><rect fill="white" height="800" width="800" x="0" y="0" /><polygon fill="black" points="55.0,36.269330410535815 25.0,88.23085463760214 85.0,88.23085463760214" stroke="none" /><polygon fill="black" points="115.0,36.269330410535815 85.0,88.23085463760214 145.0,88.23085463760214" stroke="none" /><polygon fill="black" points="175.0,36.269330410535815 145.0,88.23085463760214 205.0,88.23085463760214" stroke="none" /><polygon fill="black" points="235.0,36.269330410535815 205.0,88.23085463760214 265.0,88.23085463760214" stroke="none" /><polygon fill="black" points="295.0,36.269330410535815 265.0,88.23085463760214 325.0,88.23085463760214" stroke="none" /><polygon fill="black" points="355.0,36.269330410535815 325.0,88.23085463760214 385.0,88.23085463760214" stroke="none" /><polygon fill="black" points="415.0,36.269330410535815 385.0,88.23085463760214 445.0,88.23085463760214" stroke="none" /><polygon fill="black" points="475.0,36.269330410535815 445.0,88.23085463760214 505.0,88.23085463760214" stroke="none" /><polygon fill="black" points="535.0,36.269330410535815 505.0,88.23085463760214 565.0,88.23085463760214" stroke="none" /><polygon fill="black" points="595.0,36.269330410535815 565.0,88.23085463760214 625.0,88.23085463760214" stroke="none" /><polygon fill="black" points="655.0,36.269330410535815 625.0,88.23085463760214 685.0,88.23085463760214" stroke="none" /><polygon fill="black" points="715.0,36.269330410535815 685.0,88.23085463760214 745.0,88.23085463760214" stroke="none" /><polygon fill="black" points="85.0,88.23085463760214 55.0,140.19237886466846 115.0,140.19237886466846" stroke="none" /><polygon fill="black" points="145.0,88.23085463760214 115.0,140.19237886466846 175.0,140.19237886466846" stroke="none" /><polygon fill="black" points="205.0,88.23085463760214 175.0,140.19237886466846 235.0,140.19237886466846" stroke="none" /><polygon fill="black" points="265.0,88.23085463760214 235.0,140.19237886466846 295.0,140.19237886466846" stroke="none" /><polygon fill="black" points="325.0,88.23085463760214 295.0,140.19237886466846 355.0,140.19237886466846" stroke="none" /><polygon fill="black" points="385.0,88.23085463760214 355.0,140.19237886466846 415.0,140.19237886466846" stroke="none" /><polygon fill="black" points="445.0,88.23085463760214 415.0,140.19237886466846 475.0,140.19237886466846" stroke="none" /><polygon fill="black" points="505.0,88.23085463760214 475.0,140.19237886466846 535.0,140.19237886466846" stroke="none" /><polygon fill="black" points="565.0,88.23085463760214 535.0,140.19237886466846 595.0,140.19237886466846" stroke="none" /><polygon fill="black" points="625.0,88.23085463760214 595.0,140.19237886466846 655.0,140.19237886466846" stroke="none" /><polygon fill="black" points="685.0,88.23085463760214 655.0,140.19237886466846 715.0,140.19237886466846" stroke="none" /><polygon fill="black" points="745.0,88.23085463760214 715.0,140.19237886466846 775.0,140.19237886466846" stroke="none" /><polygon fill="black" points="55.0,140.19237886466846 25.0,192.15390309173478 85.0,192.15390309173478" stroke="none" /><polygon fill="black" points="115.0,140.19237886466846 85.0,192.15390309173478 145.0,192.15390309173478" stroke="none" /><polygon fill="black" points="115.0,155.03852864383026 110.71428571428571,162.46160353341116 119.28571428571428,162.46160353341116" stroke="none" /><polygon fill="black" points="110.71428571428571,162.46160353341116 106.42857142857142,169.88467842299207 114.99999999999999,169.88467842299207" stroke="none" /><polygon fill="white" points="115.0,169.88467842299207 110.71428571428571,162.46160353341116 119.28571428571428,162.46160353341116" stroke="none" /><polygon fill="black" points="119.28571428571428,162.46160353341116 114.99999999999999,169.88467842299207 123.57142857142856,169.88467842299207" stroke="none" /><polygon fill="black" points="106.42857142857142,169.88467842299207 102.14285714285712,177.30775331257297 110.7142857142857,177.30775331257297" stroke="none" /><polygon fill="black" points="110.71428571428571,177.30775331257297 106.42857142857142,169.88467842299207 114.99999999999999,169.88467842299207" stroke="none" /><polygon fill="white" points="114.99999999999999,169.88467842299207 110.7142857142857,177.30775331257297 119.28571428571426,177.30775331257297" stroke="none" /><polygon fill="white" points="119.28571428571428,177.30775331257297 114.99999999999999,169.88467842299207 123.57142857142856,169.88467842299207" stroke="none" /><polygon fill="black" points="123.57142857142856,169.88467842299207 119.28571428571426,177.30775331257297 127.85714285714283,177.30775331257297" stroke="none" /><polygon fill="black" points="102.14285714285712,177.30775331257297 97.85714285714283,184.73082820215387 106.4285714285714,184.73082820215387" stroke="none" /><polygon fill="black" points="106.42857142857142,184.73082820215387 102.14285714285712,177.30775331257297 110.7142857142857,177.30775331257297" stroke="none" /><polygon fill="white" points="110.7142857142857,177.30775331257297 106.4285714285714,184.73082820215387 114.99999999999997,184.73082820215387" stroke="none" /><polygon fill="white" points="114.99999999999999,184.73082820215387 110.7142857142857,177.30775331257297 119.28571428571426,177.30775331257297" stroke="none" /><polygon fill="black" points="119.28571428571426,177.30775331257297 114.99999999999997,184.73082820215387 123.57142857142854,184.73082820215387" stroke="none" /><polygon fill="white" points="123.57142857142856,184.73082820215387 119.28571428571426,177.30775331257297 127.85714285714283,177.30775331257297" stroke="none" /><polygon fill="white" points="127.85714285714285,177.30775331257297 123.57142857142856,184.73082820215387 132.14285714285714,184.73082820215387" stroke="none" /><polygon fill="black" points="175.0,140.19237886466846 145.0,192.15390309173478 205.0,192.15390309173478" stroke="none" /><polygon fill="black" points="235.0,140.19237886466846 205.0,192.15390309173478 265.0,192.15390309173478" stroke="none" /><polygon fill="black" points="295.0,140.19237886466846 265.0,192.15390309173478 325.0,192.15390309173478" stroke="none" /><polygon fill="black" points="295.0,155.03852864383026 290.7142857142857,162.46160353341116 299.2857142857143,162.46160353341116" stroke="none" /><polygon fill="black" points="290.7142857142857,162.46160353341116 286.42857142857144,169.88467842299207 295.0,169.88467842299207" stroke="none" /><polygon fill="white" points="295.0,169.88467842299207 290.7142857142857,162.46160353341116 299.2857142857143,162.46160353341116" stroke="none" /><polygon fill="black" points="299.2857142857143,162.46160353341116 295.0,169.88467842299207 303.57142857142856,169.88467842299207" stroke="none" /><polygon fill="white" points="286.42857142857144,169.88467842299207 282.14285714285717,177.30775331257297 290.7142857142857,177.30775331257297" stroke="none" /><polygon fill="white" points="290.7142857142857,177.30775331257297 286.42857142857144,169.88467842299207 295.0,169.88467842299207" stroke="none" /><polygon fill="white" points="295.0,169.88467842299207 290.7142857142857,177.30775331257297 299.2857142857143,177.30775331257297" stroke="none" /><polygon fill="black" points="299.2857142857143,177.30775331257297 295.0,169.88467842299207 303.57142857142856,169.88467842299207" stroke="none" /><polygon fill="white" points="303.5714285714286,169.88467842299207 299.28571428571433,177.30775331257297 307.8571428571429,177.30775331257297" stroke="none" /><polygon fill="black" points="282.14285714285717,177.30775331257297 277.8571428571429,184.73082820215387 286.42857142857144,184.73082820215387" stroke="none" /><polygon fill="white" points="286.42857142857144,184.73082820215387 282.14285714285717,177.30775331257297 290.7142857142857,177.30775331257297" stroke="none" /><polygon fill="black" points="290.7142857142857,177.30775331257297 286.42857142857144,184.73082820215387 295.0,184.73082820215387" stroke="none" /><polygon fill="black" points="295.0,184.73082820215387 290.7142857142857,177.30775331257297 299.2857142857143,177.30775331257297" stroke="none" /><polygon fill="white" points="299.28571428571433,177.30775331257297 295.00000000000006,184.73082820215387 303.5714285714286,184.73082820215387" stroke="none" /><polygon fill="black" points="303.5714285714286,184.73082820215387 299.28571428571433,177.30775331257297 307.8571428571429,177.30775331257297" stroke="none" /><polygon fill="white" points="307.8571428571429,177.30775331257297 303.5714285714286,184.73082820215387 312.14285714285717,184.73082820215387" stroke="none" /><polygon fill="black" points="355.0,140.19237886466846 325.0,192.15390309173478 385.0,192.15390309173478" stroke="none" /><polygon fill="black" points="415.0,140.19237886466846 385.0,192.15390309173478 445.0,192.15390309173478" stroke="none" /><polygon fill="black" points="475.0,140.19237886466846 445.0,192.15390309173478 505.0,192.15390309173478" stroke="none" /><polygon fill="black" points="475.0,155.03852864383026 470.7142857142857,162.46160353341116 479.2857142857143,162.46160353341116" stroke="none" /><polygon fill="black" points="470.7142857142857,162.46160353341116 466.42857142857144,169.88467842299207 475.0,169.88467842299207" stroke="none" /><polygon fill="white" points="475.0,169.88467842299207 470.7142857142857,162.46160353341116 479.2857142857143,162.46160353341116" stroke="none" /><polygon fill="white" points="479.2857142857143,162.46160353341116 475.0,169.88467842299207 483.57142857142856,169.88467842299207" stroke="none" /><polygon fill="black" points="466.42857142857144,169.88467842299207 462.14285714285717,177.30775331257297 470.7142857142857,177.30775331257297" stroke="none" /><polygon fill="white" points="470.7142857142857,177.30775331257297 466.42857142857144,169.88467842299207 475.0,169.88467842299207" stroke="none" /><polygon fill="black" points="475.0,169.88467842299207 470.7142857142857,177.30775331257297 479.2857142857143,177.30775331257297" stroke="none" /><polygon fill="black" points="479.2857142857143,177.30775331257297 475.0,169.88467842299207 483.57142857142856,169.88467842299207" stroke="none" /><polygon fill="black" points="483.5714285714286,169.88467842299207 479.28571428571433,177.30775331257297 487.8571428571429,177.30775331257297" stroke="none" /><polygon fill="white" points="462.14285714285717,177.30775331257297 457.8571428571429,184.73082820215387 466.42857142857144,184.73082820215387" stroke="none" /><polygon fill="white" points="466.42857142857144,184.73082820215387 462.14285714285717,177.30775331257297 470.7142857142857,177.30775331257297" stroke="none" /><polygon fill="black" points="470.7142857142857,177.30775331257297 466.42857142857144,184.73082820215387 475.0,184.73082820215387" stroke="none" /><polygon fill="white" points="475.0,184.73082820215387 470.7142857142857,177.30775331257297 479.2857142857143,177.30775331257297" stroke="none" /><polygon fill="black" points="479.28571428571433,177.30775331257297 475.00000000000006,184.73082820215387 483.5714285714286,184.73082820215387" stroke="none" /><polygon fill="white" points="483.5714285714286,184.73082820215387 479.28571428571433,177.30775331257297 487.8571428571429,177.30775331257297" stroke="none" /><polygon fill="black" points="487.8571428571429,177.30775331257297 483.5714285714286,184.73082820215387 492.14285714285717,184.73082820215387" stroke="none" /><polygon fill="black" points="535.0,140.19237886466846 505.0,192.15390309173478 565.0,192.15390309173478" stroke="none" /><polygon fill="black" points="595.0,140.19237886466846 565.0,192.15390309173478 625.0,192.15390309173478" stroke="none" /><polygon fill="black" points="655.0,140.19237886466846 625.0,192.15390309173478 685.0,192.15390309173478" stroke="none" /><polygon fill="black" points="655.0,155.03852864383026 650.7142857142857,162.46160353341116 659.2857142857142,162.46160353341116" stroke="none" /><polygon fill="white" points="650.7142857142857,162.46160353341116 646.4285714285713,169.88467842299207 654.9999999999999,169.88467842299207" stroke="none" /><polygon fill="black" points="655.0,169.88467842299207 650.7142857142857,162.46160353341116 659.2857142857142,162.46160353341116" stroke="none" /><polygon fill="black" points="659.2857142857142,162.46160353341116 654.9999999999999,169.88467842299207 663.5714285714284,169.88467842299207" stroke="none" /><polygon fill="black" points="646.4285714285713,169.88467842299207 642.142857142857,177.30775331257297 650.7142857142856,177.30775331257297" stroke="none" /><polygon fill="white" points="650.7142857142857,177.30775331257297 646.4285714285713,169.88467842299207 654.9999999999999,169.88467842299207" stroke="none" /><polygon fill="black" points="654.9999999999999,169.88467842299207 650.7142857142856,177.30775331257297 659.2857142857141,177.30775331257297" stroke="none" /><polygon fill="white" points="659.2857142857142,177.30775331257297 654.9999999999999,169.88467842299207 663.5714285714284,169.88467842299207" stroke="none" /><polygon fill="white" points="663.5714285714284,169.88467842299207 659.2857142857141,177.30775331257297 667.8571428571427,177.30775331257297" stroke="none" /><polygon fill="black" points="642.142857142857,177.30775331257297 637.8571428571427,184.73082820215387 646.4285714285712,184.73082820215387" stroke="none" /><polygon fill="white" points="646.4285714285713,184.73082820215387 642.142857142857,177.30775331257297 650.7142857142856,177.30775331257297" stroke="none" /><polygon fill="white" points="650.7142857142856,177.30775331257297 646.4285714285712,184.73082820215387 654.9999999999998,184.73082820215387" stroke="none" /><polygon fill="white" points="654.9999999999999,184.73082820215387 650.7142857142856,177.30775331257297 659.2857142857141,177.30775331257297" stroke="none" /><polygon fill="black" points="659.2857142857141,177.30775331257297 654.9999999999998,184.73082820215387 663.5714285714283,184.73082820215387" stroke="none" /><polygon fill="black" points="663.5714285714284,184.73082820215387 659.2857142857141,177.30775331257297 667.8571428571427,177.30775331257297" stroke="none" /><polygon fill="white" points="667.8571428571427,177.30775331257297 663.5714285714283,184.73082820215387 672.1428571428569,184.73082820215387" stroke="none" /><polygon fill="black" points="715.0,140.19237886466846 685.0,192.15390309173478 745.0,192.15390309173478" stroke="none" /><polygon fill="black" points="85.0,192.15390309173475 55.0,244.11542731880107 115.0,244.11542731880107" stroke="none" /><polygon fill="black" points="145.0,192.15390309173475 115.0,244.11542731880107 175.0,244.11542731880107" stroke="none" /><polygon fill="black" points="205.0,192.15390309173475 175.0,244.11542731880107 235.0,244.11542731880107" stroke="none" /><polygon fill="black" points="265.0,192.15390309173475 235.0,244.11542731880107 295.0,244.11542731880107" stroke="none" /><polygon fill="black" points="325.0,192.15390309173475 295.0,244.11542731880107 355.0,244.11542731880107" stroke="none" /><polygon fill="black" points="385.0,192.15390309173475 355.0,244.11542731880107 415.0,244.11542731880107" stroke="none" /><polygon fill="black" points="445.0,192.15390309173475 415.0,244.11542731880107 475.0,244.11542731880107" stroke="none" /><polygon fill="black" points="505.0,192.15390309173475 475.0,244.11542731880107 535.0,244.11542731880107" stroke="none" /><polygon fill="black" points="565.0,192.15390309173475 535.0,244.11542731880107 595.0,244.11542731880107" stroke="none" /><polygon fill="black" points="625.0,192.15390309173475 595.0,244.11542731880107 655.0,244.11542731880107" stroke="none" /><polygon fill="black" points="685.0,192.15390309173475 655.0,244.11542731880107 715.0,244.11542731880107" stroke="none" /><polygon fill="black" points="745.0,192.15390309173475 715.0,244.11542731880107 775.0,244.11542731880107" stroke="none" /><polygon fill="black" points="55.0,244.11542731880107 25.0,296.07695154586736 85.0,296.07695154586736" stroke="none" /><polygon fill="black" points="115.0,244.11542731880107 85.0,296.07695154586736 145.0,296.07695154586736" stroke="none" /><polygon fill="black" points="175.0,244.11542731880107 145.0,296.07695154586736 205.0,296.07695154586736" stroke="none" /><polygon fill="black" points="235.0,244.11542731880107 205.0,296.07695154586736 265.0,296.07695154586736" stroke="none" /><polygon fill="black" points="295.0,244.11542731880107 265.0,296.07695154586736 325.0,296.07695154586736" stroke="none" /><polygon fill="black" points="355.0,244.11542731880107 325.0,296.07695154586736 385.0,296.07695154586736" stroke="none" /><polygon fill="black" points="415.0,244.11542731880107 385.0,296.07695154586736 445.0,296.07695154586736" stroke="none" /><polygon fill="black" points="475.0,244.11542731880107 445.0,296.07695154586736 505.0,296.07695154586736" stroke="none" /><polygon fill="black" points="535.0,244.11542731880107 505.0,296.07695154586736 565.0,296.07695154586736" stroke="none" /><polygon fill="black" points="595.0,244.11542731880107 565.0,296.07695154586736 625.0,296.07695154586736" stroke="none" /><polygon fill="black" points="655.0,244.11542731880107 625.0,296.07695154586736 685.0,296.07695154586736" stroke="none" /><polygon fill="black" points="715.0,244.11542731880107 685.0,296.07695154586736 745.0,296.07695154586736" stroke="none" /><polygon fill="black" points="85.0,296.07695154586736 55.0,348.0384757729337 115.0,348.0384757729337" stroke="none" /><polygon fill="black" points="145.0,296.07695154586736 115.0,348.0384757729337 175.0,348.0384757729337" stroke="none" /><polygon fill="black" points="145.0,310.92310132502917 140.71428571428572,318.34617621461007 149.2857142857143,318.34617621461007" stroke="none" /><polygon fill="white" points="140.71428571428572,318.34617621461007 136.42857142857144,325.76925110419097 145.00000000000003,325.76925110419097" stroke="none" /><polygon fill="white" points="145.0,325.76925110419097 140.71428571428572,318.34617621461007 149.2857142857143,318.34617621461007" stroke="none" /><polygon fill="white" points="149.2857142857143,318.34617621461007 145.00000000000003,325.76925110419097 153.5714285714286,325.76925110419097" stroke="none" /><polygon fill="white" points="136.42857142857144,325.76925110419097 132.14285714285717,333.1923259937719 140.71428571428575,333.1923259937719" stroke="none" /><polygon fill="black" points="140.71428571428572,333.1923259937719 136.42857142857144,325.76925110419097 145.00000000000003,325.76925110419097" stroke="none" /><polygon fill="black" points="145.00000000000003,325.76925110419097 140.71428571428575,333.1923259937719 149.28571428571433,333.1923259937719" stroke="none" /><polygon fill="white" points="149.2857142857143,333.1923259937719 145.00000000000003,325.76925110419097 153.5714285714286,325.76925110419097" stroke="none" /><polygon fill="white" points="153.57142857142858,325.76925110419097 149.2857142857143,333.1923259937719 157.8571428571429,333.1923259937719" stroke="none" /><polygon fill="black" points="132.14285714285717,333.1923259937719 127.85714285714288,340.6154008833528 136.42857142857144,340.6154008833528" stroke="none" /><polygon fill="white" points="136.42857142857144,340.6154008833528 132.14285714285717,333.1923259937719 140.71428571428575,333.1923259937719" stroke="none" /><polygon fill="black" points="140.71428571428572,333.1923259937719 136.42857142857144,340.6154008833528 145.00000000000003,340.6154008833528" stroke="none" /><polygon fill="black" points="145.0,340.6154008833528 140.71428571428572,333.1923259937719 149.2857142857143,333.1923259937719" stroke="none" /><polygon fill="white" points="149.2857142857143,333.1923259937719 145.00000000000003,340.6154008833528 153.5714285714286,340.6154008833528" stroke="none" /><polygon fill="white" points="153.57142857142858,340.6154008833528 149.2857142857143,333.1923259937719 157.8571428571429,333.1923259937719" stroke="none" /><polygon fill="black" points="157.85714285714286,333.1923259937719 153.57142857142858,340.6154008833528 162.14285714285717,340.6154008833528" stroke="none" /><polygon fill="black" points="205.0,296.07695154586736 175.0,348.0384757729337 235.0,348.0384757729337" stroke="none" /><polygon fill="black" points="265.0,296.07695154586736 235.0,348.0384757729337 295.0,348.0384757729337" stroke="none" /><polygon fill="black" points="325.0,296.07695154586736 295.0,348.0384757729337 355.0,348.0384757729337" stroke="none" /><polygon fill="black" points="325.0,310.92310132502917 320.7142857142857,318.34617621461007 329.2857142857143,318.34617621461007" stroke="none" /><polygon fill="white" points="320.7142857142857,318.34617621461007 316.42857142857144,325.76925110419097 325.0,325.76925110419097" stroke="none" /><polygon fill="white" points="325.0,325.76925110419097 320.7142857142857,318.34617621461007 329.2857142857143,318.34617621461007" stroke="none" /><polygon fill="white" points="329.2857142857143,318.34617621461007 325.0,325.76925110419097 333.57142857142856,325.76925110419097" stroke="none" /><polygon fill="white" points="316.42857142857144,325.76925110419097 312.14285714285717,333.1923259937719 320.7142857142857,333.1923259937719" stroke="none" /><polygon fill="white" points="320.7142857142857,333.1923259937719 316.42857142857144,325.76925110419097 325.0,325.76925110419097" stroke="none" /><polygon fill="white" points="325.0,325.76925110419097 320.7142857142857,333.1923259937719 329.2857142857143,333.1923259937719" stroke="none" /><polygon fill="white" points="329.2857142857143,333.1923259937719 325.0,325.76925110419097 333.57142857142856,325.76925110419097" stroke="none" /><polygon fill="black" points="333.5714285714286,325.76925110419097 329.28571428571433,333.1923259937719 337.8571428571429,333.1923259937719" stroke="none" /><polygon fill="white" points="312.14285714285717,333.1923259937719 307.8571428571429,340.6154008833528 316.42857142857144,340.6154008833528" stroke="none" /><polygon fill="white" points="316.42857142857144,340.6154008833528 312.14285714285717,333.1923259937719 320.7142857142857,333.1923259937719" stroke="none" /><polygon fill="black" points="320.7142857142857,333.1923259937719 316.42857142857144,340.6154008833528 325.0,340.6154008833528" stroke="none" /><polygon fill="white" points="325.0,340.6154008833528 320.7142857142857,333.1923259937719 329.2857142857143,333.1923259937719" stroke="none" /><polygon fill="black" points="329.28571428571433,333.1923259937719 325.00000000000006,340.6154008833528 333.5714285714286,340.6154008833528" stroke="none" /><polygon fill="white" points="333.5714285714286,340.6154008833528 329.28571428571433,333.1923259937719 337.8571428571429,333.1923259937719" stroke="none" /><polygon fill="white" points="337.8571428571429,333.1923259937719 333.5714285714286,340.6154008833528 342.14285714285717,340.6154008833528" stroke="none" /><polygon fill="black" points="385.0,296.07695154586736 355.0,348.0384757729337 415.0,348.0384757729337" stroke="none" /><polygon fill="black" points="445.0,296.07695154586736 415.0,348.0384757729337 475.0,348.0384757729337" stroke="none" /><polygon fill="black" points="505.0,296.07695154586736 475.0,348.0384757729337 535.0,348.0384757729337" stroke="none" /><polygon fill="white" points="505.0,310.92310132502917 500.7142857142857,318.34617621461007 509.2857142857143,318.34617621461007" stroke="none" /><polygon fill="black" points="500.7142857142857,318.34617621461007 496.42857142857144,325.76925110419097 505.0,325.76925110419097" stroke="none" /><polygon fill="white" points="505.0,325.76925110419097 500.7142857142857,318.34617621461007 509.2857142857143,318.34617621461007" stroke="none" /><polygon fill="white" points="509.2857142857143,318.34617621461007 505.0,325.76925110419097 513.5714285714286,325.76925110419097" stroke="none" /><polygon fill="black" points="496.42857142857144,325.76925110419097 492.14285714285717,333.1923259937719 500.7142857142857,333.1923259937719" stroke="none" /><polygon fill="black" points="500.7142857142857,333.1923259937719 496.42857142857144,325.76925110419097 505.0,325.76925110419097" stroke="none" /><polygon fill="white" points="505.0,325.76925110419097 500.7142857142857,333.1923259937719 509.2857142857143,333.1923259937719" stroke="none" /><polygon fill="white" points="509.2857142857143,333.1923259937719 505.0,325.76925110419097 513.5714285714286,325.76925110419097" stroke="none" /><polygon fill="black" points="513.5714285714287,325.76925110419097 509.28571428571433,333.1923259937719 517.8571428571429,333.1923259937719" stroke="none" /><polygon fill="white" points="492.14285714285717,333.1923259937719 487.8571428571429,340.6154008833528 496.42857142857144,340.6154008833528" stroke="none" /><polygon fill="black" points="496.42857142857144,340.6154008833528 492.14285714285717,333.1923259937719 500.7142857142857,333.1923259937719" stroke="none" /><polygon fill="white" points="500.7142857142857,333.1923259937719 496.42857142857144,340.6154008833528 505.0,340.6154008833528" stroke="none" /><polygon fill="white" points="505.0,340.6154008833528 500.7142857142857,333.1923259937719 509.2857142857143,333.1923259937719" stroke="none" /><polygon fill="black" points="509.28571428571433,333.1923259937719 505.00000000000006,340.6154008833528 513.5714285714287,340.6154008833528" stroke="none" /><polygon fill="black" points="513.5714285714287,340.6154008833528 509.28571428571433,333.1923259937719 517.8571428571429,333.1923259937719" stroke="none" /><polygon fill="black" points="517.8571428571429,333.1923259937719 513.5714285714286,340.6154008833528 522.1428571428571,340.6154008833528" stroke="none" /><polygon fill="black" points="565.0,296.07695154586736 535.0,348.0384757729337 595.0,348.0384757729337" stroke="none" /><polygon fill="black" points="625.0,296.07695154586736 595.0,348.0384757729337 655.0,348.0384757729337" stroke="none" /><polygon fill="black" points="685.0,296.07695154586736 655.0,348.0384757729337 715.0,348.0384757729337" stroke="none" /><polygon fill="white" points="685.0,310.92310132502917 680.7142857142857,318.34617621461007 689.2857142857142,318.34617621461007" stroke="none" /><polygon fill="white" points="680.7142857142857,318.34617621461007 676.4285714285713,325.76925110419097 684.9999999999999,325.76925110419097" stroke="none" /><polygon fill="white" points="685.0,325.76925110419097 680.7142857142857,318.34617621461007 689.2857142857142,318.34617621461007" stroke="none" /><polygon fill="black" points="689.2857142857142,318.34617621461007 684.9999999999999,325.76925110419097 693.5714285714284,325.76925110419097" stroke="none" /><polygon fill="black" points="676.4285714285713,325.76925110419097 672.142857142857,333.1923259937719 680.7142857142856,333.1923259937719" stroke="none" /><polygon fill="white" points="680.7142857142857,333.1923259937719 676.4285714285713,325.76925110419097 684.9999999999999,325.76925110419097" stroke="none" /><polygon fill="white" points="684.9999999999999,325.76925110419097 680.7142857142856,333.1923259937719 689.2857142857141,333.1923259937719" stroke="none" /><polygon fill="white" points="689.2857142857142,333.1923259937719 684.9999999999999,325.76925110419097 693.5714285714284,325.76925110419097" stroke="none" /><polygon fill="black" points="693.5714285714284,325.76925110419097 689.2857142857141,333.1923259937719 697.8571428571427,333.1923259937719" stroke="none" /><polygon fill="white" points="672.142857142857,333.1923259937719 667.8571428571427,340.6154008833528 676.4285714285712,340.6154008833528" stroke="none" /><polygon fill="black" points="676.4285714285713,340.6154008833528 672.142857142857,333.1923259937719 680.7142857142856,333.1923259937719" stroke="none" /><polygon fill="black" points="680.7142857142856,333.1923259937719 676.4285714285712,340.6154008833528 684.9999999999998,340.6154008833528" stroke="none" /><polygon fill="black" points="684.9999999999999,340.6154008833528 680.7142857142856,333.1923259937719 689.2857142857141,333.1923259937719" stroke="none" /><polygon fill="white" points="689.2857142857141,333.1923259937719 684.9999999999998,340.6154008833528 693.5714285714283,340.6154008833528" stroke="none" /><polygon fill="black" points="693.5714285714284,340.6154008833528 689.2857142857141,333.1923259937719 697.8571428571427,333.1923259937719" stroke="none" /><polygon fill="white" points="697.8571428571427,333.1923259937719 693.5714285714283,340.6154008833528 702.1428571428569,340.6154008833528" stroke="none" /><polygon fill="black" points="745.0,296.07695154586736 715.0,348.0384757729337 775.0,348.0384757729337" stroke="none" /><polygon fill="black" points="55.0,348.0384757729337 25.0,400.0 85.0,400.0" stroke="none" /><polygon fill="black" points="115.0,348.0384757729337 85.0,400.0 145.0,400.0" stroke="none" /><polygon fill="black" points="175.0,348.0384757729337 145.0,400.0 205.0,400.0" stroke="none" /><polygon fill="black" points="235.0,348.0384757729337 205.0,400.0 265.0,400.0" stroke="none" /><polygon fill="black" points="295.0,348.0384757729337 265.0,400.0 325.0,400.0" stroke="none" /><polygon fill="black" points="355.0,348.0384757729337 325.0,400.0 385.0,400.0" stroke="none" /><polygon fill="black" points="415.0,348.0384757729337 385.0,400.0 445.0,400.0" stroke="none" /><polygon fill="black" points="475.0,348.0384757729337 445.0,400.0 505.0,400.0" stroke="none" /><polygon fill="black" points="535.0,348.0384757729337 505.0,400.0 565.0,400.0" stroke="none" /><polygon fill="black" points="595.0,348.0384757729337 565.0,400.0 625.0,400.0" stroke="none" /><polygon fill="black" points="655.0,348.0384757729337 625.0,400.0 685.0,400.0" stroke="none" /><polygon fill="black" points="715.0,348.0384757729337 685.0,400.0 745.0,400.0" stroke="none" /><polygon fill="black" points="85.0,400.0 55.0,451.9615242270663 115.0,451.9615242270663" stroke="none" /><polygon fill="black" points="145.0,400.0 115.0,451.9615242270663 175.0,451.9615242270663" stroke="none" /><polygon fill="black" points="205.0,400.0 175.0,451.9615242270663 235.0,451.9615242270663" stroke="none" /><polygon fill="black" points="265.0,400.0 235.0,451.9615242270663 295.0,451.9615242270663" stroke="none" /><polygon fill="black" points="325.0,400.0 295.0,451.9615242270663 355.0,451.9615242270663" stroke="none" /><polygon fill="black" points="385.0,400.0 355.0,451.9615242270663 415.0,451.9615242270663" stroke="none" /><polygon fill="black" points="445.0,400.0 415.0,451.9615242270663 475.0,451.9615242270663" stroke="none" /><polygon fill="black" points="505.0,400.0 475.0,451.9615242270663 535.0,451.9615242270663" stroke="none" /><polygon fill="black" points="565.0,400.0 535.0,451.9615242270663 595.0,451.9615242270663" stroke="none" /><polygon fill="black" points="625.0,400.0 595.0,451.9615242270663 655.0,451.9615242270663" stroke="none" /><polygon fill="black" points="685.0,400.0 655.0,451.9615242270663 715.0,451.9615242270663" stroke="none" /><polygon fill="black" points="745.0,400.0 715.0,451.9615242270663 775.0,451.9615242270663" stroke="none" /><polygon fill="black" points="55.0,451.9615242270663 25.0,503.92304845413264 85.0,503.92304845413264" stroke="none" /><polygon fill="black" points="115.0,451.9615242270663 85.0,503.92304845413264 145.0,503.92304845413264" stroke="none" /><polygon fill="white" points="115.0,466.8076740062281 110.71428571428571,474.23074889580903 119.28571428571428,474.23074889580903" stroke="none" /><polygon fill="white" points="110.71428571428571,474.23074889580903 106.42857142857142,481.65382378538993 114.99999999999999,481.65382378538993" stroke="none" /><polygon fill="white" points="115.0,481.65382378538993 110.71428571428571,474.23074889580903 119.28571428571428,474.23074889580903" stroke="none" /><polygon fill="white" points="119.28571428571428,474.23074889580903 114.99999999999999,481.65382378538993 123.57142857142856,481.65382378538993" stroke="none" /><polygon fill="white" points="106.42857142857142,481.65382378538993 102.14285714285712,489.07689867497083 110.7142857142857,489.07689867497083" stroke="none" /><polygon fill="white" points="110.71428571428571,489.07689867497083 106.42857142857142,481.65382378538993 114.99999999999999,481.65382378538993" stroke="none" /><polygon fill="white" points="114.99999999999999,481.65382378538993 110.7142857142857,489.07689867497083 119.28571428571426,489.07689867497083" stroke="none" /><polygon fill="black" points="119.28571428571428,489.07689867497083 114.99999999999999,481.65382378538993 123.57142857142856,481.65382378538993" stroke="none" /><polygon fill="black" points="123.57142857142856,481.65382378538993 119.28571428571426,489.07689867497083 127.85714285714283,489.07689867497083" stroke="none" /><polygon fill="white" points="102.14285714285712,489.07689867497083 97.85714285714283,496.49997356455174 106.4285714285714,496.49997356455174" stroke="none" /><polygon fill="black" points="106.42857142857142,496.49997356455174 102.14285714285712,489.07689867497083 110.7142857142857,489.07689867497083" stroke="none" /><polygon fill="white" points="110.7142857142857,489.07689867497083 106.4285714285714,496.49997356455174 114.99999999999997,496.49997356455174" stroke="none" /><polygon fill="white" points="114.99999999999999,496.49997356455174 110.7142857142857,489.07689867497083 119.28571428571426,489.07689867497083" stroke="none" /><polygon fill="black" points="119.28571428571426,489.07689867497083 114.99999999999997,496.49997356455174 123.57142857142854,496.49997356455174" stroke="none" /><polygon fill="black" points="123.57142857142856,496.49997356455174 119.28571428571426,489.07689867497083 127.85714285714283,489.07689867497083" stroke="none" /><polygon fill="white" points="127.85714285714285,489.07689867497083 123.57142857142856,496.49997356455174 132.14285714285714,496.49997356455174" stroke="none" /><polygon fill="black" points="175.0,451.9615242270663 145.0,503.92304845413264 205.0,503.92304845413264" stroke="none" /><polygon fill="black" points="235.0,451.9615242270663 205.0,503.92304845413264 265.0,503.92304845413264" stroke="none" /><polygon fill="black" points="295.0,451.9615242270663 265.0,503.92304845413264 325.0,503.92304845413264" stroke="none" /><polygon fill="black" points="295.0,466.8076740062281 290.7142857142857,474.23074889580903 299.2857142857143,474.23074889580903" stroke="none" /><polygon fill="black" points="290.7142857142857,474.23074889580903 286.42857142857144,481.65382378538993 295.0,481.65382378538993" stroke="none" /><polygon fill="black" points="295.0,481.65382378538993 290.7142857142857,474.23074889580903 299.2857142857143,474.23074889580903" stroke="none" /><polygon fill="white" points="299.2857142857143,474.23074889580903 295.0,481.65382378538993 303.57142857142856,481.65382378538993" stroke="none" /><polygon fill="black" points="286.42857142857144,481.65382378538993 282.14285714285717,489.07689867497083 290.7142857142857,489.07689867497083" stroke="none" /><polygon fill="white" points="290.7142857142857,489.07689867497083 286.42857142857144,481.65382378538993 295.0,481.65382378538993" stroke="none" /><polygon fill="black" points="295.0,481.65382378538993 290.7142857142857,489.07689867497083 299.2857142857143,489.07689867497083" stroke="none" /><polygon fill="white" points="299.2857142857143,489.07689867497083 295.0,481.65382378538993 303.57142857142856,481.65382378538993" stroke="none" /><polygon fill="black" points="303.5714285714286,481.65382378538993 299.28571428571433,489.07689867497083 307.8571428571429,489.07689867497083" stroke="none" /><polygon fill="white" points="282.14285714285717,489.07689867497083 277.8571428571429,496.49997356455174 286.42857142857144,496.49997356455174" stroke="none" /><polygon fill="white" points="286.42857142857144,496.49997356455174 282.14285714285717,489.07689867497083 290.7142857142857,489.07689867497083" stroke="none" /><polygon fill="black" points="290.7142857142857,489.07689867497083 286.42857142857144,496.49997356455174 295.0,496.49997356455174" stroke="none" /><polygon fill="white" points="295.0,496.49997356455174 290.7142857142857,489.07689867497083 299.2857142857143,489.07689867497083" stroke="none" /><polygon fill="white" points="299.28571428571433,489.07689867497083 295.00000000000006,496.49997356455174 303.5714285714286,496.49997356455174" stroke="none" /><polygon fill="black" points="303.5714285714286,496.49997356455174 299.28571428571433,489.07689867497083 307.8571428571429,489.07689867497083" stroke="none" /><polygon fill="white" points="307.8571428571429,489.07689867497083 303.5714285714286,496.49997356455174 312.14285714285717,496.49997356455174" stroke="none" /><polygon fill="black" points="355.0,451.9615242270663 325.0,503.92304845413264 385.0,503.92304845413264" stroke="none" /><polygon fill="black" points="415.0,451.9615242270663 385.0,503.92304845413264 445.0,503.92304845413264" stroke="none" /><polygon fill="black" points="475.0,451.9615242270663 445.0,503.92304845413264 505.0,503.92304845413264" stroke="none" /><polygon fill="black" points="475.0,466.8076740062281 470.7142857142857,474.23074889580903 479.2857142857143,474.23074889580903" stroke="none" /><polygon fill="black" points="470.7142857142857,474.23074889580903 466.42857142857144,481.65382378538993 475.0,481.65382378538993" stroke="none" /><polygon fill="white" points="475.0,481.65382378538993 470.7142857142857,474.23074889580903 479.2857142857143,474.23074889580903" stroke="none" /><polygon fill="white" points="479.2857142857143,474.23074889580903 475.0,481.65382378538993 483.57142857142856,481.65382378538993" stroke="none" /><polygon fill="white" points="466.42857142857144,481.65382378538993 462.14285714285717,489.07689867497083 470.7142857142857,489.07689867497083" stroke="none" /><polygon fill="black" points="470.7142857142857,489.07689867497083 466.42857142857144,481.65382378538993 475.0,481.65382378538993" stroke="none" /><polygon fill="black" points="475.0,481.65382378538993 470.7142857142857,489.07689867497083 479.2857142857143,489.07689867497083" stroke="none" /><polygon fill="black" points="479.2857142857143,489.07689867497083 475.0,481.65382378538993 483.57142857142856,481.65382378538993" stroke="none" /><polygon fill="black" points="483.5714285714286,481.65382378538993 479.28571428571433,489.07689867497083 487.8571428571429,489.07689867497083" stroke="none" /><polygon fill="black" points="462.14285714285717,489.07689867497083 457.8571428571429,496.49997356455174 466.42857142857144,496.49997356455174" stroke="none" /><polygon fill="black" points="466.42857142857144,496.49997356455174 462.14285714285717,489.07689867497083 470.7142857142857,489.07689867497083" stroke="none" /><polygon fill="black" points="470.7142857142857,489.07689867497083 466.42857142857144,496.49997356455174 475.0,496.49997356455174" stroke="none" /><polygon fill="white" points="475.0,496.49997356455174 470.7142857142857,489.07689867497083 479.2857142857143,489.07689867497083" stroke="none" /><polygon fill="black" points="479.28571428571433,489.07689867497083 475.00000000000006,496.49997356455174 483.5714285714286,496.49997356455174" stroke="none" /><polygon fill="white" points="483.5714285714286,496.49997356455174 479.28571428571433,489.07689867497083 487.8571428571429,489.07689867497083" stroke="none" /><polygon fill="white" points="487.8571428571429,489.07689867497083 483.5714285714286,496.49997356455174 492.14285714285717,496.49997356455174" stroke="none" /><polygon fill="black" points="535.0,451.9615242270663 505.0,503.92304845413264 565.0,503.92304845413264" stroke="none" /><polygon fill="black" points="595.0,451.9615242270663 565.0,503.92304845413264 625.0,503.92304845413264" stroke="none" /><polygon fill="black" points="655.0,451.9615242270663 625.0,503.92304845413264 685.0,503.92304845413264" stroke="none" /><polygon fill="white" points="655.0,466.8076740062281 650.7142857142857,474.23074889580903 659.2857142857142,474.23074889580903" stroke="none" /><polygon fill="white" points="650.7142857142857,474.23074889580903 646.4285714285713,481.65382378538993 654.9999999999999,481.65382378538993" stroke="none" /><polygon fill="white" points="655.0,481.65382378538993 650.7142857142857,474.23074889580903 659.2857142857142,474.23074889580903" stroke="none" /><polygon fill="white" points="659.2857142857142,474.23074889580903 654.9999999999999,481.65382378538993 663.5714285714284,481.65382378538993" stroke="none" /><polygon fill="black" points="646.4285714285713,481.65382378538993 642.142857142857,489.07689867497083 650.7142857142856,489.07689867497083" stroke="none" /><polygon fill="black" points="650.7142857142857,489.07689867497083 646.4285714285713,481.65382378538993 654.9999999999999,481.65382378538993" stroke="none" /><polygon fill="black" points="654.9999999999999,481.65382378538993 650.7142857142856,489.07689867497083 659.2857142857141,489.07689867497083" stroke="none" /><polygon fill="black" points="659.2857142857142,489.07689867497083 654.9999999999999,481.65382378538993 663.5714285714284,481.65382378538993" stroke="none" /><polygon fill="white" points="663.5714285714284,481.65382378538993 659.2857142857141,489.07689867497083 667.8571428571427,489.07689867497083" stroke="none" /><polygon fill="black" points="642.142857142857,489.07689867497083 637.8571428571427,496.49997356455174 646.4285714285712,496.49997356455174" stroke="none" /><polygon fill="white" points="646.4285714285713,496.49997356455174 642.142857142857,489.07689867497083 650.7142857142856,489.07689867497083" stroke="none" /><polygon fill="black" points="650.7142857142856,489.07689867497083 646.4285714285712,496.49997356455174 654.9999999999998,496.49997356455174" stroke="none" /><polygon fill="white" points="654.9999999999999,496.49997356455174 650.7142857142856,489.07689867497083 659.2857142857141,489.07689867497083" stroke="none" /><polygon fill="black" points="659.2857142857141,489.07689867497083 654.9999999999998,496.49997356455174 663.5714285714283,496.49997356455174" stroke="none" /><polygon fill="white" points="663.5714285714284,496.49997356455174 659.2857142857141,489.07689867497083 667.8571428571427,489.07689867497083" stroke="none" /><polygon fill="white" points="667.8571428571427,489.07689867497083 663.5714285714283,496.49997356455174 672.1428571428569,496.49997356455174" stroke="none" /><polygon fill="black" points="715.0,451.9615242270663 685.0,503.92304845413264 745.0,503.92304845413264" stroke="none" /><polygon fill="black" points="85.0,503.92304845413264 55.0,555.884572681199 115.0,555.884572681199" stroke="none" /><polygon fill="black" points="145.0,503.92304845413264 115.0,555.884572681199 175.0,555.884572681199" stroke="none" /><polygon fill="black" points="205.0,503.92304845413264 175.0,555.884572681199 235.0,555.884572681199" stroke="none" /><polygon fill="black" points="265.0,503.92304845413264 235.0,555.884572681199 295.0,555.884572681199" stroke="none" /><polygon fill="black" points="325.0,503.92304845413264 295.0,555.884572681199 355.0,555.884572681199" stroke="none" /><polygon fill="black" points="385.0,503.92304845413264 355.0,555.884572681199 415.0,555.884572681199" stroke="none" /><polygon fill="black" points="445.0,503.92304845413264 415.0,555.884572681199 475.0,555.884572681199" stroke="none" /><polygon fill="black" points="505.0,503.92304845413264 475.0,555.884572681199 535.0,555.884572681199" stroke="none" /><polygon fill="black" points="565.0,503.92304845413264 535.0,555.884572681199 595.0,555.884572681199" stroke="none" /><polygon fill="black" points="625.0,503.92304845413264 595.0,555.884572681199 655.0,555.884572681199" stroke="none" /><polygon fill="black" points="685.0,503.92304845413264 655.0,555.884572681199 715.0,555.884572681199" stroke="none" /><polygon fill="black" points="745.0,503.92304845413264 715.0,555.884572681199 775.0,555.884572681199" stroke="none" /><polygon fill="black" points="55.0,555.884572681199 25.0,607.8460969082653 85.0,607.8460969082653" stroke="none" /><polygon fill="black" points="115.0,555.884572681199 85.0,607.8460969082653 145.0,607.8460969082653" stroke="none" /><polygon fill="black" points="175.0,555.884572681199 145.0,607.8460969082653 205.0,607.8460969082653" stroke="none" /><polygon fill="black" points="235.0,555.884572681199 205.0,607.8460969082653 265.0,607.8460969082653" stroke="none" /><polygon fill="black" points="295.0,555.884572681199 265.0,607.8460969082653 325.0,607.8460969082653" stroke="none" /><polygon fill="black" points="355.0,555.884572681199 325.0,607.8460969082653 385.0,607.8460969082653" stroke="none" /><polygon fill="black" points="415.0,555.884572681199 385.0,607.8460969082653 445.0,607.8460969082653" stroke="none" /><polygon fill="black" points="475.0,555.884572681199 445.0,607.8460969082653 505.0,607.8460969082653" stroke="none" /><polygon fill="black" points="535.0,555.884572681199 505.0,607.8460969082653 565.0,607.8460969082653" stroke="none" /><polygon fill="black" points="595.0,555.884572681199 565.0,607.8460969082653 625.0,607.8460969082653" stroke="none" /><polygon fill="black" points="655.0,555.884572681199 625.0,607.8460969082653 685.0,607.8460969082653" stroke="none" /><polygon fill="black" points="715.0,555.884572681199 685.0,607.8460969082653 745.0,607.8460969082653" stroke="none" /><polygon fill="black" points="85.0,607.8460969082653 55.0,659.8076211353316 115.0,659.8076211353316" stroke="none" /><polygon fill="black" points="145.0,607.8460969082653 115.0,659.8076211353316 175.0,659.8076211353316" stroke="none" /><polygon fill="black" points="145.0,622.6922466874271 140.71428571428572,630.115321577008 149.2857142857143,630.115321577008" stroke="none" /><polygon fill="black" points="140.71428571428572,630.115321577008 136.42857142857144,637.5383964665889 145.00000000000003,637.5383964665889" stroke="none" /><polygon fill="black" points="145.0,637.5383964665889 140.71428571428572,630.115321577008 149.2857142857143,630.115321577008" stroke="none" /><polygon fill="black" points="149.2857142857143,630.115321577008 145.00000000000003,637.5383964665889 153.5714285714286,637.5383964665889" stroke="none" /><polygon fill="white" points="136.42857142857144,637.5383964665889 132.14285714285717,644.9614713561698 140.71428571428575,644.9614713561698" stroke="none" /><polygon fill="white" points="140.71428571428572,644.9614713561698 136.42857142857144,637.5383964665889 145.00000000000003,637.5383964665889" stroke="none" /><polygon fill="black" points="145.00000000000003,637.5383964665889 140.71428571428575,644.9614713561698 149.28571428571433,644.9614713561698" stroke="none" /><polygon fill="white" points="149.2857142857143,644.9614713561698 145.00000000000003,637.5383964665889 153.5714285714286,637.5383964665889" stroke="none" /><polygon fill="white" points="153.57142857142858,637.5383964665889 149.2857142857143,644.9614713561698 157.8571428571429,644.9614713561698" stroke="none" /><polygon fill="black" points="132.14285714285717,644.9614713561698 127.85714285714288,652.3845462457507 136.42857142857144,652.3845462457507" stroke="none" /><polygon fill="black" points="136.42857142857144,652.3845462457507 132.14285714285717,644.9614713561698 140.71428571428575,644.9614713561698" stroke="none" /><polygon fill="black" points="140.71428571428572,644.9614713561698 136.42857142857144,652.3845462457507 145.00000000000003,652.3845462457507" stroke="none" /><polygon fill="black" points="145.0,652.3845462457507 140.71428571428572,644.9614713561698 149.2857142857143,644.9614713561698" stroke="none" /><polygon fill="white" points="149.2857142857143,644.9614713561698 145.00000000000003,652.3845462457507 153.5714285714286,652.3845462457507" stroke="none" /><polygon fill="black" points="153.57142857142858,652.3845462457507 149.2857142857143,644.9614713561698 157.8571428571429,644.9614713561698" stroke="none" /><polygon fill="black" points="157.85714285714286,644.9614713561698 153.57142857142858,652.3845462457507 162.14285714285717,652.3845462457507" stroke="none" /><polygon fill="black" points="205.0,607.8460969082653 175.0,659.8076211353316 235.0,659.8076211353316" stroke="none" /><polygon fill="black" points="265.0,607.8460969082653 235.0,659.8076211353316 295.0,659.8076211353316" stroke="none" /><polygon fill="black" points="325.0,607.8460969082653 295.0,659.8076211353316 355.0,659.8076211353316" stroke="none" /><polygon fill="black" points="325.0,622.6922466874271 320.7142857142857,630.115321577008 329.2857142857143,630.115321577008" stroke="none" /><polygon fill="white" points="320.7142857142857,630.115321577008 316.42857142857144,637.5383964665889 325.0,637.5383964665889" stroke="none" /><polygon fill="black" points="325.0,637.5383964665889 320.7142857142857,630.115321577008 329.2857142857143,630.115321577008" stroke="none" /><polygon fill="black" points="329.2857142857143,630.115321577008 325.0,637.5383964665889 333.57142857142856,637.5383964665889" stroke="none" /><polygon fill="black" points="316.42857142857144,637.5383964665889 312.14285714285717,644.9614713561698 320.7142857142857,644.9614713561698" stroke="none" /><polygon fill="white" points="320.7142857142857,644.9614713561698 316.42857142857144,637.5383964665889 325.0,637.5383964665889" stroke="none" /><polygon fill="white" points="325.0,637.5383964665889 320.7142857142857,644.9614713561698 329.2857142857143,644.9614713561698" stroke="none" /><polygon fill="white" points="329.2857142857143,644.9614713561698 325.0,637.5383964665889 333.57142857142856,637.5383964665889" stroke="none" /><polygon fill="black" points="333.5714285714286,637.5383964665889 329.28571428571433,644.9614713561698 337.8571428571429,644.9614713561698" stroke="none" /><polygon fill="black" points="312.14285714285717,644.9614713561698 307.8571428571429,652.3845462457507 316.42857142857144,652.3845462457507" stroke="none" /><polygon fill="white" points="316.42857142857144,652.3845462457507 312.14285714285717,644.9614713561698 320.7142857142857,644.9614713561698" stroke="none" /><polygon fill="white" points="320.7142857142857,644.9614713561698 316.42857142857144,652.3845462457507 325.0,652.3845462457507" stroke="none" /><polygon fill="black" points="325.0,652.3845462457507 320.7142857142857,644.9614713561698 329.2857142857143,644.9614713561698" stroke="none" /><polygon fill="white" points="329.28571428571433,644.9614713561698 325.00000000000006,652.3845462457507 333.5714285714286,652.3845462457507" stroke="none" /><polygon fill="white" points="333.5714285714286,652.3845462457507 329.28571428571433,644.9614713561698 337.8571428571429,644.9614713561698" stroke="none" /><polygon fill="black" points="337.8571428571429,644.9614713561698 333.5714285714286,652.3845462457507 342.14285714285717,652.3845462457507" stroke="none" /><polygon fill="black" points="385.0,607.8460969082653 355.0,659.8076211353316 415.0,659.8076211353316" stroke="none" /><polygon fill="black" points="445.0,607.8460969082653 415.0,659.8076211353316 475.0,659.8076211353316" stroke="none" /><polygon fill="black" points="505.0,607.8460969082653 475.0,659.8076211353316 535.0,659.8076211353316" stroke="none" /><polygon fill="white" points="505.0,622.6922466874271 500.7142857142857,630.115321577008 509.2857142857143,630.115321577008" stroke="none" /><polygon fill="black" points="500.7142857142857,630.115321577008 496.42857142857144,637.5383964665889 505.0,637.5383964665889" stroke="none" /><polygon fill="black" points="505.0,637.5383964665889 500.7142857142857,630.115321577008 509.2857142857143,630.115321577008" stroke="none" /><polygon fill="black" points="509.2857142857143,630.115321577008 505.0,637.5383964665889 513.5714285714286,637.5383964665889" stroke="none" /><polygon fill="white" points="496.42857142857144,637.5383964665889 492.14285714285717,644.9614713561698 500.7142857142857,644.9614713561698" stroke="none" /><polygon fill="white" points="500.7142857142857,644.9614713561698 496.42857142857144,637.5383964665889 505.0,637.5383964665889" stroke="none" /><polygon fill="black" points="505.0,637.5383964665889 500.7142857142857,644.9614713561698 509.2857142857143,644.9614713561698" stroke="none" /><polygon fill="black" points="509.2857142857143,644.9614713561698 505.0,637.5383964665889 513.5714285714286,637.5383964665889" stroke="none" /><polygon fill="black" points="513.5714285714287,637.5383964665889 509.28571428571433,644.9614713561698 517.8571428571429,644.9614713561698" stroke="none" /><polygon fill="white" points="492.14285714285717,644.9614713561698 487.8571428571429,652.3845462457507 496.42857142857144,652.3845462457507" stroke="none" /><polygon fill="white" points="496.42857142857144,652.3845462457507 492.14285714285717,644.9614713561698 500.7142857142857,644.9614713561698" stroke="none" /><polygon fill="white" points="500.7142857142857,644.9614713561698 496.42857142857144,652.3845462457507 505.0,652.3845462457507" stroke="none" /><polygon fill="black" points="505.0,652.3845462457507 500.7142857142857,644.9614713561698 509.2857142857143,644.9614713561698" stroke="none" /><polygon fill="black" points="509.28571428571433,644.9614713561698 505.00000000000006,652.3845462457507 513.5714285714287,652.3845462457507" stroke="none" /><polygon fill="white" points="513.5714285714287,652.3845462457507 509.28571428571433,644.9614713561698 517.8571428571429,644.9614713561698" stroke="none" /><polygon fill="black" points="517.8571428571429,644.9614713561698 513.5714285714286,652.3845462457507 522.1428571428571,652.3845462457507" stroke="none" /><polygon fill="black" points="565.0,607.8460969082653 535.0,659.8076211353316 595.0,659.8076211353316" stroke="none" /><polygon fill="black" points="625.0,607.8460969082653 595.0,659.8076211353316 655.0,659.8076211353316" stroke="none" /><polygon fill="black" points="685.0,607.8460969082653 655.0,659.8076211353316 715.0,659.8076211353316" stroke="none" /><polygon fill="white" points="685.0,622.6922466874271 680.7142857142857,630.115321577008 689.2857142857142,630.115321577008" stroke="none" /><polygon fill="black" points="680.7142857142857,630.115321577008 676.4285714285713,637.5383964665889 684.9999999999999,637.5383964665889" stroke="none" /><polygon fill="white" points="685.0,637.5383964665889 680.7142857142857,630.115321577008 689.2857142857142,630.115321577008" stroke="none" /><polygon fill="black" points="689.2857142857142,630.115321577008 684.9999999999999,637.5383964665889 693.5714285714284,637.5383964665889" stroke="none" /><polygon fill="white" points="676.4285714285713,637.5383964665889 672.142857142857,644.9614713561698 680.7142857142856,644.9614713561698" stroke="none" /><polygon fill="white" points="680.7142857142857,644.9614713561698 676.4285714285713,637.5383964665889 684.9999999999999,637.5383964665889" stroke="none" /><polygon fill="white" points="684.9999999999999,637.5383964665889 680.7142857142856,644.9614713561698 689.2857142857141,644.9614713561698" stroke="none" /><polygon fill="white" points="689.2857142857142,644.9614713561698 684.9999999999999,637.5383964665889 693.5714285714284,637.5383964665889" stroke="none" /><polygon fill="black" points="693.5714285714284,637.5383964665889 689.2857142857141,644.9614713561698 697.8571428571427,644.9614713561698" stroke="none" /><polygon fill="black" points="672.142857142857,644.9614713561698 667.8571428571427,652.3845462457507 676.4285714285712,652.3845462457507" stroke="none" /><polygon fill="black" points="676.4285714285713,652.3845462457507 672.142857142857,644.9614713561698 680.7142857142856,644.9614713561698" stroke="none" /><polygon fill="white" points="680.7142857142856,644.9614713561698 676.4285714285712,652.3845462457507 684.9999999999998,652.3845462457507" stroke="none" /><polygon fill="black" points="684.9999999999999,652.3845462457507 680.7142857142856,644.9614713561698 689.2857142857141,644.9614713561698" stroke="none" /><polygon fill="black" points="689.2857142857141,644.9614713561698 684.9999999999998,652.3845462457507 693.5714285714283,652.3845462457507" stroke="none" /><polygon fill="black" points="693.5714285714284,652.3845462457507 689.2857142857141,644.9614713561698 697.8571428571427,644.9614713561698" stroke="none" /><polygon fill="black" points="697.8571428571427,644.9614713561698 693.5714285714283,652.3845462457507 702.1428571428569,652.3845462457507" stroke="none" /><polygon fill="black" points="745.0,607.8460969082653 715.0,659.8076211353316 775.0,659.8076211353316" stroke="none" /><polygon fill="black" points="55.0,659.8076211353316 25.0,711.7691453623979 85.0,711.7691453623979" stroke="none" /><polygon fill="black" points="115.0,659.8076211353316 85.0,711.7691453623979 145.0,711.7691453623979" stroke="none" /><polygon fill="black" points="175.0,659.8076211353316 145.0,711.7691453623979 205.0,711.7691453623979" stroke="none" /><polygon fill="black" points="235.0,659.8076211353316 205.0,711.7691453623979 265.0,711.7691453623979" stroke="none" /><polygon fill="black" points="295.0,659.8076211353316 265.0,711.7691453623979 325.0,711.7691453623979" stroke="none" /><polygon fill="black" points="355.0,659.8076211353316 325.0,711.7691453623979 385.0,711.7691453623979" stroke="none" /><polygon fill="black" points="415.0,659.8076211353316 385.0,711.7691453623979 445.0,711.7691453623979" stroke="none" /><polygon fill="black" points="475.0,659.8076211353316 445.0,711.7691453623979 505.0,711.7691453623979" stroke="none" /><polygon fill="black" points="535.0,659.8076211353316 505.0,711.7691453623979 565.0,711.7691453623979" stroke="none" /><polygon fill="black" points="595.0,659.8076211353316 565.0,711.7691453623979 625.0,711.7691453623979" stroke="none" /><polygon fill="black" points="655.0,659.8076211353316 625.0,711.7691453623979 685.0,711.7691453623979" stroke="none" /><polygon fill="black" points="715.0,659.8076211353316 685.0,711.7691453623979 745.0,711.7691453623979" stroke="none" /><polygon fill="black" points="85.0,711.7691453623979 55.0,763.7306695894642 115.0,763.7306695894642" stroke="none" /><polygon fill="black" points="145.0,711.7691453623979 115.0,763.7306695894642 175.0,763.7306695894642" stroke="none" /><polygon fill="black" points="205.0,711.7691453623979 175.0,763.7306695894642 235.0,763.7306695894642" stroke="none" /><polygon fill="black" points="265.0,711.7691453623979 235.0,763.7306695894642 295.0,763.7306695894642" stroke="none" /><polygon fill="black" points="325.0,711.7691453623979 295.0,763.7306695894642 355.0,763.7306695894642" stroke="none" /><polygon fill="black" points="385.0,711.7691453623979 355.0,763.7306695894642 415.0,763.7306695894642" stroke="none" /><polygon fill="black" points="445.0,711.7691453623979 415.0,763.7306695894642 475.0,763.7306695894642" stroke="none" /><polygon fill="black" points="505.0,711.7691453623979 475.0,763.7306695894642 535.0,763.7306695894642" stroke="none" /><polygon fill="black" points="565.0,711.7691453623979 535.0,763.7306695894642 595.0,763.7306695894642" stroke="none" /><polygon fill="black" points="625.0,711.7691453623979 595.0,763.7306695894642 655.0,763.7306695894642" stroke="none" /><polygon fill="black" points="685.0,711.7691453623979 655.0,763.7306695894642 715.0,763.7306695894642" stroke="none" /><polygon fill="black" points="745.0,711.7691453623979 715.0,763.7306695894642 775.0,763.7306695894642" stroke="none" /></svg>